<?xml version="1.0" encoding="utf-8"?>
<!-- Generator: Adobe Illustrator 27.5.0, SVG Export Plug-In . SVG Version: 6.00 Build 0)  -->
<svg version="1.1" xmlns="http://www.w3.org/2000/svg" xmlns:xlink="http://www.w3.org/1999/xlink" x="0px" y="0px"
	 viewBox="0 0 500 500" style="enable-background:new 0 0 500 500;" xml:space="preserve">
<g id="Background_Complete">
	<g>
		<g>
			<g>
				<g>
					<path style="fill:#F5F5F5;" d="M139.106,60.037c0.005,12.186-9.891,22.069-22.105,22.075
						c-12.214,0.006-22.12-9.868-22.125-22.054c-0.006-12.186,9.891-22.069,22.105-22.074
						C129.194,37.978,139.101,47.852,139.106,60.037z"/>
				</g>
			</g>
			<g>
				<g>
					<path style="fill:#EBEBEB;" d="M133.844,60.04c0.004,9.286-7.538,16.817-16.846,16.822c-9.307,0.005-16.856-7.52-16.861-16.806
						c-0.004-9.286,7.538-16.818,16.845-16.822C126.291,43.23,133.84,50.754,133.844,60.04z"/>
				</g>
			</g>
			<g>
				<g>
					<g>
						<path style="fill:#E0E0E0;" d="M133.84,59.512c-0.102,0.004-0.174-0.736-0.446-2.027c-0.278-1.283-0.789-3.138-1.947-5.164
							c-0.578-1.009-1.313-2.055-2.233-3.062c-0.927-0.997-2.027-1.964-3.318-2.781c-0.643-0.411-1.328-0.794-2.057-1.118
							c-0.727-0.328-1.489-0.623-2.288-0.844c-0.797-0.223-1.623-0.406-2.474-0.507c-0.85-0.103-1.718-0.145-2.598-0.123
							c-0.879,0.034-1.744,0.132-2.585,0.288c-0.843,0.155-1.655,0.39-2.437,0.663c-0.784,0.271-1.526,0.614-2.23,0.988
							c-0.707,0.371-1.366,0.797-1.981,1.247c-1.236,0.898-2.273,1.933-3.134,2.987c-0.854,1.062-1.52,2.154-2.033,3.198
							c-1.025,2.095-1.416,3.979-1.612,5.277c-0.189,1.305-0.213,2.048-0.316,2.05c-0.076,0.004-0.222-0.736-0.185-2.096
							c0.046-1.35,0.309-3.347,1.282-5.611c0.487-1.127,1.146-2.313,2.018-3.475c0.879-1.152,1.958-2.289,3.265-3.28
							c0.651-0.497,1.35-0.967,2.105-1.378c0.752-0.414,1.547-0.793,2.39-1.094c0.841-0.303,1.716-0.563,2.625-0.735
							c0.908-0.174,1.841-0.281,2.789-0.317c0.948-0.024,1.886,0.024,2.803,0.139c0.917,0.114,1.808,0.318,2.666,0.567
							c0.86,0.247,1.677,0.575,2.454,0.94c0.779,0.361,1.508,0.786,2.189,1.241c1.366,0.906,2.516,1.971,3.468,3.066
							c0.943,1.103,1.678,2.245,2.236,3.339c1.115,2.197,1.505,4.173,1.638,5.518C134.015,58.763,133.916,59.51,133.84,59.512z"/>
					</g>
				</g>
			</g>
		</g>
		<g>
			<g>
				<g>
					<g>
						<path style="fill:#E0E0E0;" d="M118.902,70.099l0.044,2.936l-2.621,0.038l-0.043-2.856c-2.597-0.119-5.099-0.894-6.557-1.999
							l1.393-3.219c1.325,0.951,3.222,1.63,5.113,1.785l-0.066-4.377c-2.92-0.663-6.184-1.585-6.239-5.333
							c-0.041-2.778,1.941-5.193,6.075-5.726l-0.043-2.91l2.621-0.039l0.043,2.857c1.968,0.128,3.888,0.623,5.344,1.519
							l-1.262,3.244c-1.348-0.74-2.718-1.165-4.03-1.304l0.067,4.456c2.919,0.637,6.131,1.56,6.186,5.255
							C124.966,67.152,123.009,69.54,118.902,70.099z M116.109,58.554l-0.056-3.721c-1.384,0.335-1.923,1.104-1.91,1.968
							C114.157,57.718,114.95,58.205,116.109,58.554z M120.711,64.803c-0.014-0.918-0.781-1.404-1.914-1.781l0.054,3.617
							C120.157,66.332,120.724,65.642,120.711,64.803z"/>
					</g>
				</g>
			</g>
		</g>
	</g>
	<g>
		<g>
			<g>
				<g>
					<path style="fill:#F5F5F5;" d="M81.987,168.104c1.08,7.433-4.084,14.335-11.533,15.418c-7.45,1.083-14.365-4.065-15.445-11.498
						c-1.08-7.432,4.083-14.335,11.533-15.418C73.992,155.524,80.907,160.671,81.987,168.104z"/>
				</g>
			</g>
			<g>
				<g>
					<path style="fill:#EBEBEB;" d="M78.777,168.57c0.823,5.664-3.112,10.924-8.789,11.749c-5.677,0.825-10.946-3.098-11.77-8.762
						c-0.823-5.664,3.112-10.925,8.789-11.75C72.685,158.984,77.954,162.906,78.777,168.57z"/>
				</g>
			</g>
			<g>
				<g>
					<g>
						<path style="fill:#E0E0E0;" d="M78.728,168.248c-0.062,0.011-0.171-0.434-0.451-1.197c-0.283-0.758-0.759-1.845-1.644-2.978
							c-0.442-0.564-0.982-1.138-1.632-1.67c-0.654-0.526-1.41-1.019-2.27-1.403c-0.429-0.194-0.88-0.367-1.353-0.5
							c-0.472-0.136-0.963-0.249-1.471-0.313c-0.506-0.066-1.026-0.104-1.554-0.091c-0.527,0.013-1.061,0.063-1.596,0.154
							c-0.533,0.098-1.052,0.234-1.552,0.404c-0.5,0.169-0.975,0.384-1.428,0.62c-0.454,0.235-0.876,0.509-1.273,0.8
							c-0.399,0.288-0.763,0.607-1.098,0.936c-0.675,0.657-1.215,1.38-1.648,2.099c-0.427,0.723-0.737,1.448-0.958,2.13
							c-0.44,1.369-0.512,2.552-0.517,3.361c0,0.813,0.051,1.268-0.012,1.278c-0.046,0.009-0.201-0.429-0.298-1.262
							c-0.091-0.828-0.107-2.069,0.286-3.536c0.197-0.73,0.495-1.512,0.924-2.298c0.435-0.781,0.992-1.57,1.702-2.29
							c0.353-0.361,0.738-0.709,1.162-1.026c0.422-0.319,0.874-0.62,1.361-0.879c0.486-0.259,0.997-0.495,1.536-0.68
							c0.538-0.186,1.098-0.334,1.673-0.44c0.576-0.099,1.153-0.152,1.722-0.163c0.57-0.011,1.131,0.034,1.676,0.11
							c0.546,0.075,1.074,0.202,1.58,0.357c0.507,0.152,0.989,0.347,1.445,0.563c0.914,0.432,1.709,0.98,2.386,1.564
							c0.673,0.589,1.222,1.221,1.659,1.839c0.874,1.242,1.287,2.412,1.487,3.221C78.769,167.776,78.774,168.241,78.728,168.248z"/>
					</g>
				</g>
			</g>
		</g>
		<g>
			<g>
				<g>
					<g>
						<path style="fill:#E0E0E0;" d="M70.552,176.026l0.286,1.787l-1.595,0.255l-0.278-1.738c-1.595,0.157-3.189-0.095-4.176-0.64
							l0.565-2.087c0.892,0.463,2.109,0.709,3.276,0.637l-0.427-2.664c-1.84-0.147-3.912-0.42-4.277-2.702
							c-0.271-1.691,0.725-3.339,3.199-4.029l-0.284-1.771l1.595-0.255l0.278,1.739c1.212-0.096,2.427,0.036,3.394,0.454
							l-0.483,2.09c-0.888-0.332-1.761-0.471-2.574-0.439l0.434,2.712c1.837,0.131,3.878,0.41,4.238,2.659
							C73.99,173.693,73.008,175.322,70.552,176.026z M67.828,169.231l-0.363-2.265c-0.815,0.327-1.075,0.843-0.991,1.37
							C66.563,168.893,67.09,169.12,67.828,169.231z M71.188,172.636c-0.09-0.559-0.601-0.787-1.325-0.917l0.353,2.202
							C70.985,173.617,71.269,173.146,71.188,172.636z"/>
					</g>
				</g>
			</g>
		</g>
	</g>
	<g>
		<g>
			<g>
				
					<rect x="434.041" y="296.959" transform="matrix(0.1907 -0.9817 0.9817 0.1907 51.8331 693.1935)" style="fill:#EBEBEB;" width="24.539" height="36.406"/>
			</g>
		</g>
		<g>
			<g>
				<g>
					<g>
						<path style="fill:#E0E0E0;" d="M466.577,306.9c0.005,0.01-0.131,0.098-0.395,0.256c-0.294,0.171-0.681,0.397-1.164,0.678
							c-1.05,0.595-2.516,1.425-4.316,2.445c-3.689,2.053-8.739,4.863-14.333,7.976l-0.118,0.066l-0.088-0.103
							c-0.067-0.079-0.14-0.164-0.212-0.249c-4.184-4.945-7.97-9.419-10.738-12.691c-1.345-1.613-2.441-2.929-3.225-3.87
							c-0.359-0.442-0.646-0.795-0.864-1.063c-0.195-0.245-0.293-0.378-0.284-0.385c0.009-0.007,0.124,0.111,0.335,0.342
							c0.23,0.258,0.533,0.598,0.911,1.023c0.804,0.925,1.927,2.217,3.305,3.802c2.787,3.255,6.599,7.708,10.812,12.628
							c0.073,0.085,0.145,0.171,0.212,0.249l-0.206-0.038c5.612-3.079,10.679-5.859,14.381-7.89
							c1.821-0.981,3.304-1.781,4.366-2.353c0.496-0.259,0.893-0.467,1.194-0.625C466.425,306.959,466.571,306.89,466.577,306.9z"/>
					</g>
				</g>
			</g>
		</g>
		<g>
			<g>
				<g>
					<path style="fill:#E0E0E0;" d="M426.159,324.048c-0.057-0.071,3.272-2.851,7.434-6.209c4.164-3.359,7.585-6.023,7.643-5.952
						c0.057,0.071-3.271,2.85-7.435,6.209C429.639,321.454,426.217,324.119,426.159,324.048z"/>
				</g>
			</g>
		</g>
		<g>
			<g>
				<g>
					<path style="fill:#E0E0E0;" d="M453.174,313.893c0.081-0.042,2.1,3.752,4.509,8.472c2.409,4.722,4.296,8.582,4.215,8.624
						c-0.081,0.041-2.1-3.751-4.509-8.473C454.98,317.796,453.093,313.935,453.174,313.893z"/>
				</g>
			</g>
		</g>
	</g>
	<g>
		<g>
			<g>
				<g>
					<g>
						<path style="fill:#EBEBEB;" d="M354.585,52.217c-0.049-0.001-0.111-0.565-0.185-1.63c-0.023-0.534-0.072-1.191-0.219-1.958
							c-0.119-0.769-0.229-1.66-0.514-2.631c-0.431-1.968-1.322-4.296-2.732-6.768c-1.421-2.462-3.479-5.041-6.293-7.249
							c-2.806-2.187-6.355-4.069-10.473-4.883c-4.091-0.787-8.723-0.758-13.163,0.821c-2.234,0.721-4.397,1.837-6.393,3.261
							c-1.031,0.673-1.937,1.526-2.886,2.343c-0.86,0.911-1.763,1.799-2.511,2.837c-3.166,4.012-5.018,9.217-5.201,14.624
							c-0.082,5.412,1.516,10.702,4.483,14.864c0.696,1.074,1.555,2.005,2.37,2.957c0.908,0.862,1.772,1.758,2.769,2.481
							c1.925,1.521,4.032,2.741,6.229,3.569c4.359,1.793,8.985,2.047,13.109,1.459c4.153-0.614,7.789-2.322,10.698-4.37
							c2.918-2.069,5.098-4.545,6.637-6.935c1.527-2.401,2.531-4.682,3.056-6.627c0.332-0.955,0.485-1.84,0.641-2.602
							c0.183-0.759,0.264-1.413,0.313-1.944C354.447,52.776,354.536,52.215,354.585,52.217c0.048,0.001,0.054,0.564,0.019,1.644
							c-0.004,0.541-0.041,1.209-0.183,1.988c-0.115,0.783-0.229,1.692-0.526,2.68c-0.456,2.009-1.407,4.384-2.918,6.9
							c-1.523,2.505-3.724,5.119-6.719,7.323c-2.985,2.183-6.756,4.022-11.096,4.717c-4.309,0.669-9.165,0.447-13.769-1.403
							c-2.318-0.856-4.546-2.126-6.583-3.716c-1.053-0.758-1.971-1.694-2.931-2.602c-0.866-0.997-1.773-1.979-2.514-3.108
							c-3.145-4.38-4.852-9.976-4.76-15.689c0.188-5.709,2.164-11.214,5.518-15.434c0.794-1.091,1.748-2.027,2.661-2.981
							c1.002-0.86,1.964-1.75,3.053-2.456c2.112-1.49,4.399-2.649,6.755-3.392c4.688-1.624,9.548-1.611,13.819-0.733
							c4.301,0.905,7.978,2.924,10.854,5.249c2.885,2.346,4.957,5.064,6.357,7.64c1.388,2.587,2.222,5.005,2.58,7.034
							c0.249,1.001,0.319,1.915,0.396,2.703c0.104,0.785,0.108,1.454,0.086,1.995C354.667,51.655,354.634,52.218,354.585,52.217z"/>
					</g>
				</g>
			</g>
		</g>
		<g>
			<g>
				<g>
					<g>
						<path style="fill:#EBEBEB;" d="M349.455,36.196c0.056,0.079-0.406,0.481-1.299,1.146c-0.49,0.352-1.037,0.745-1.65,1.184
							c-0.327,0.224-0.669,0.477-1.05,0.716c-0.403,0.211-0.825,0.431-1.263,0.66c-3.431,1.983-8.868,4.007-15.076,3.797
							c-0.77-0.034-1.531-0.068-2.282-0.102c-0.741-0.116-1.471-0.23-2.19-0.343c-0.358-0.06-0.715-0.108-1.064-0.179
							c-0.344-0.092-0.685-0.182-1.023-0.272c-0.672-0.187-1.338-0.345-1.971-0.548c-2.516-0.875-4.69-1.895-6.396-2.947
							c-3.436-2.078-5.109-3.968-4.979-4.09c0.139-0.159,2.007,1.423,5.468,3.221c1.72,0.913,3.86,1.801,6.296,2.576
							c0.613,0.178,1.255,0.313,1.902,0.479c0.325,0.08,0.652,0.162,0.983,0.244c0.337,0.051,0.677,0.102,1.02,0.154
							c0.687,0.101,1.385,0.204,2.093,0.308c0.716,0.029,1.441,0.058,2.175,0.088c5.902,0.203,11.13-1.566,14.598-3.278
							c0.443-0.193,0.869-0.377,1.277-0.555c0.389-0.203,0.742-0.422,1.082-0.609c0.65-0.358,1.231-0.678,1.75-0.964
							C348.829,36.367,349.399,36.117,349.455,36.196z"/>
					</g>
				</g>
			</g>
		</g>
		<g>
			<g>
				<g>
					<g>
						<path style="fill:#EBEBEB;" d="M308.431,67.374c-0.057-0.079,0.406-0.481,1.299-1.146c0.49-0.351,1.037-0.745,1.65-1.184
							c0.327-0.224,0.669-0.477,1.05-0.716c0.403-0.211,0.824-0.431,1.263-0.66c3.431-1.983,8.868-4.007,15.076-3.796
							c0.77,0.034,1.531,0.068,2.282,0.102c0.741,0.116,1.471,0.23,2.19,0.343c0.358,0.06,0.715,0.108,1.064,0.179
							c0.344,0.092,0.685,0.182,1.022,0.272c0.672,0.187,1.338,0.345,1.971,0.548c2.516,0.875,4.689,1.895,6.396,2.947
							c3.436,2.078,5.109,3.968,4.979,4.09c-0.139,0.159-2.006-1.423-5.468-3.22c-1.72-0.913-3.86-1.802-6.296-2.576
							c-0.613-0.178-1.255-0.313-1.902-0.479c-0.324-0.081-0.652-0.162-0.983-0.244c-0.337-0.051-0.677-0.102-1.02-0.154
							c-0.687-0.101-1.385-0.204-2.093-0.308c-0.716-0.029-1.441-0.058-2.175-0.088c-5.902-0.203-11.13,1.565-14.598,3.278
							c-0.443,0.192-0.869,0.377-1.277,0.554c-0.389,0.203-0.742,0.422-1.082,0.609c-0.65,0.358-1.231,0.678-1.75,0.964
							C309.057,67.203,308.487,67.453,308.431,67.374z"/>
					</g>
				</g>
			</g>
		</g>
		<g>
			<g>
				<g>
					<g>
						<path style="fill:#EBEBEB;" d="M354.571,52.812c-0.009,0.389-11.496,0.426-25.653,0.082
							c-14.162-0.344-25.631-0.938-25.621-1.328c0.009-0.389,11.494-0.426,25.656-0.082
							C343.109,51.829,354.58,52.423,354.571,52.812z"/>
					</g>
				</g>
			</g>
		</g>
		<g>
			<g>
				<g>
					<g>
						<path style="fill:#EBEBEB;" d="M327.751,77.208c-0.389-0.01-0.426-11.492-0.082-25.645
							c0.344-14.157,0.938-25.622,1.327-25.613c0.389,0.01,0.426,11.49,0.082,25.647C328.734,65.749,328.14,77.217,327.751,77.208z"
							/>
					</g>
				</g>
			</g>
		</g>
		<g>
			<g>
				<g>
					<g>
						<path style="fill:#EBEBEB;" d="M327.752,77.169c-0.097,0.149-2.922-1.766-6.182-6.103c-1.612-2.166-3.304-4.953-4.583-8.321
							c-1.273-3.362-2.07-7.32-1.984-11.489c0.074-4.182,1.125-8.096,2.589-11.374c1.463-3.291,3.3-5.978,5.008-8.065
							c3.453-4.173,6.301-6.022,6.397-5.874c0.138,0.16-2.441,2.259-5.611,6.488c-1.568,2.114-3.26,4.776-4.601,7.967
							c-1.342,3.18-2.3,6.91-2.371,10.884c-0.082,3.978,0.637,7.761,1.795,11.016c1.163,3.261,2.708,6.009,4.176,8.191
							C325.351,74.86,327.895,77.014,327.752,77.169z"/>
					</g>
				</g>
			</g>
		</g>
		<g>
			<g>
				<g>
					<g>
						<path style="fill:#EBEBEB;" d="M329.57,25.957c0.097-0.149,2.922,1.766,6.182,6.103c1.612,2.166,3.304,4.953,4.583,8.321
							c1.273,3.362,2.07,7.32,1.984,11.489c-0.074,4.182-1.125,8.096-2.588,11.374c-1.463,3.291-3.3,5.978-5.008,8.065
							c-3.453,4.173-6.301,6.023-6.397,5.874c-0.138-0.16,2.441-2.259,5.611-6.488c1.568-2.114,3.26-4.776,4.601-7.967
							c1.342-3.18,2.3-6.91,2.371-10.884c0.082-3.977-0.637-7.761-1.795-11.016c-1.163-3.261-2.708-6.009-4.176-8.191
							C331.971,28.266,329.427,26.112,329.57,25.957z"/>
					</g>
				</g>
			</g>
		</g>
	</g>
	<g>
		<path style="fill:#EBEBEB;" d="M80.639,340.119l1.272-2.815c2.228-5.124-0.127-11.105-5.25-13.333
			c-5.124-2.229-11.105,0.127-13.327,5.236l-1.295,2.867c-2.669-0.719-5.532,0.598-6.668,3.209l-7.266,16.706
			c-1.249,2.872,0.066,6.212,2.938,7.461l17.343,7.543c2.872,1.249,6.212-0.066,7.461-2.938l7.266-16.706
			C84.292,344.639,83.183,341.512,80.639,340.119z M66.156,354.896l-4.536-1.973l2.133-2.968c-0.573-0.829-0.72-1.925-0.289-2.918
			c0.664-1.527,2.441-2.227,3.969-1.563c1.527,0.664,2.227,2.441,1.563,3.968c-0.416,0.957-1.269,1.589-2.223,1.764
			C66.542,352.616,66.156,354.896,66.156,354.896z M78.648,339.225l-14.579-6.341l1.261-2.791c1.748-4.02,6.441-5.867,10.461-4.119
			c4.02,1.748,5.868,6.441,4.125,10.446L78.648,339.225z"/>
	</g>
	<g>
		<g>
			<path style="fill:#EBEBEB;" d="M435.356,157.815c0.005,3.937-3.182,7.133-7.118,7.138c-3.937,0.005-7.133-3.182-7.138-7.118
				c-0.005-3.937,3.182-7.132,7.118-7.138C432.155,150.691,435.351,153.878,435.356,157.815z"/>
		</g>
		<g>
			<path style="fill:#EBEBEB;" d="M455.308,143.531c0.005,3.937-3.182,7.132-7.118,7.138c-3.937,0.005-7.132-3.182-7.138-7.118
				c-0.005-3.937,3.182-7.132,7.118-7.138C452.107,136.408,455.302,139.595,455.308,143.531z"/>
		</g>
		<g>
			<path style="fill:#EBEBEB;" d="M455.349,173.745c0.006,4.283-3.181,7.76-7.117,7.765c-3.937,0.006-7.133-3.462-7.139-7.746
				c-0.006-4.283,3.181-7.76,7.117-7.765C452.147,165.994,455.344,169.462,455.349,173.745z"/>
		</g>
		<g>
			<g>
				<path style="fill:#EBEBEB;" d="M446.118,172.841c-0.305,0.448-5.046-2.244-10.589-6.013c-5.545-3.77-9.791-7.188-9.486-7.637
					c0.305-0.448,5.045,2.244,10.59,6.014C442.175,168.974,446.422,172.393,446.118,172.841z"/>
			</g>
		</g>
		<g>
			<g>
				<path style="fill:#EBEBEB;" d="M446.687,143.042c0.332,0.428-3.329,3.821-8.175,7.576c-4.848,3.756-9.046,6.453-9.378,6.025
					c-0.332-0.428,3.328-3.82,8.176-7.576C442.156,145.311,446.355,142.614,446.687,143.042z"/>
			</g>
		</g>
	</g>
</g>
<g id="Background_Simple">
	<g>
		<path style="fill:#F5F5F5;" d="M433.642,112.305l-1.208,0.117c-10.182,0.983-19.096,7.338-22.912,16.728
			c-0.491,1.207-0.894,2.45-1.202,3.719c-2.22,9.14,0.571,19.369,7.155,26.224c3.872,4.032,9.069,7.142,11.207,12.282
			c2.783,6.69-0.616,14.132-3.94,20.514c-3.325,6.381-6.706,13.838-3.894,20.516c1.761,4.182,5.706,7.143,9.916,8.903
			c11.146,4.661,24.513,1.771,33.985-5.531c9.472-7.303,15.37-18.433,18.325-29.997c4.14-16.2,2.734-34.182-5.823-48.707
			C466.694,122.546,450.523,112.119,433.642,112.305z"/>
	</g>
	<g>
		<path style="fill:#F5F5F5;" d="M77.591,128.837l0.999,0.253c8.423,2.135,15.091,8.616,17.088,16.991
			c0.257,1.077,0.436,2.172,0.532,3.277c0.689,7.96-2.969,16.19-9.378,21.1c-3.77,2.888-8.533,4.831-10.989,8.872
			c-3.197,5.26-1.3,11.946,0.671,17.731s3.852,12.481,0.632,17.727c-2.017,3.285-5.709,5.264-9.47,6.201
			c-9.958,2.481-20.811-1.663-27.825-9.013c-7.014-7.349-10.536-17.453-11.531-27.544c-1.394-14.135,2.098-29.053,11.15-40.15
			C48.522,133.188,63.44,126.511,77.591,128.837z"/>
	</g>
	<g>
		<circle style="fill:#F5F5F5;" cx="336.75" cy="50.031" r="18.701"/>
	</g>
	<g>
		
			<ellipse transform="matrix(0.2212 -0.9752 0.9752 0.2212 -286.0241 334.8885)" style="fill:#F5F5F5;" cx="66.658" cy="346.521" rx="18.701" ry="18.701"/>
	</g>
</g>
<g id="Table">
	<g>
		<g>
			<path style="fill:#263238;" d="M450.278,474.706c0,0.144-89.675,0.26-200.268,0.26c-110.632,0-200.287-0.117-200.287-0.26
				c0-0.144,89.655-0.26,200.287-0.26C360.603,474.445,450.278,474.562,450.278,474.706z"/>
		</g>
	</g>
</g>
<g id="Graphic">
	<g>
		<g>
			<g>
				<path style="fill:#263238;" d="M395.396,93.762c0.091,0.112-12.365,10.394-27.817,22.964
					c-15.457,12.574-28.057,22.673-28.148,22.562c-0.091-0.111,12.362-10.392,27.82-22.966
					C382.702,103.753,395.305,93.651,395.396,93.762z"/>
			</g>
		</g>
		<g>
			<g>
				<path style="fill:#263238;" d="M415.912,261.65c-0.049,0.135-16.168-5.638-35.997-12.892
					c-19.836-7.257-35.871-13.248-35.821-13.383c0.049-0.135,16.164,5.637,36,12.894
					C399.923,255.523,415.961,261.515,415.912,261.65z"/>
			</g>
		</g>
		<g>
			<g>
				<path style="fill:#263238;" d="M82.162,123.156c0.068-0.127,17.433,9.039,38.781,20.469
					c21.356,11.434,38.607,20.803,38.539,20.93c-0.068,0.127-17.429-9.037-38.785-20.471
					C99.349,132.654,82.094,123.283,82.162,123.156z"/>
			</g>
		</g>
		<g>
			<g>
				<path style="fill:#263238;" d="M88.42,271.608c-0.05-0.135,14.217-5.614,31.864-12.237c17.653-6.625,31.999-11.885,32.05-11.751
					c0.05,0.135-14.214,5.613-31.867,12.238C102.82,266.482,88.47,271.743,88.42,271.608z"/>
			</g>
		</g>
		<g>
			<g>
				<path style="fill:#FF725E;" d="M257.657,301.657c-47.87,0-86.815-38.945-86.815-86.816c0-47.87,38.945-86.815,86.815-86.815
					c47.871,0,86.816,38.945,86.816,86.815C344.473,262.711,305.528,301.657,257.657,301.657z M257.657,129.025
					c-47.318,0-85.815,38.497-85.815,85.815c0,47.319,38.497,85.816,85.815,85.816c47.319,0,85.816-38.497,85.816-85.816
					C343.473,167.522,304.976,129.025,257.657,129.025z"/>
			</g>
			<g>
				<g>
					<path style="fill:#263238;" d="M367.413,213.599c0,0-0.033-0.603-0.072-1.779c-0.018-0.59-0.041-1.322-0.068-2.191
						c-0.022-0.871-0.046-1.883-0.158-3.026c-0.091-1.145-0.192-2.424-0.304-3.836c-0.144-1.409-0.371-2.942-0.578-4.607
						c-0.469-3.322-1.194-7.129-2.234-11.361c-1.118-4.208-2.477-8.871-4.499-13.775c-1.981-4.912-4.423-10.152-7.634-15.445
						c-6.344-10.597-15.445-21.687-27.847-31.145c-6.175-4.741-13.195-8.996-20.932-12.511c-7.732-3.511-16.182-6.331-25.194-7.954
						c-8.995-1.661-18.517-2.315-28.242-1.557c-4.869,0.288-9.764,1.079-14.678,2.052c-4.904,1.048-9.794,2.454-14.642,4.175
						c-19.322,6.995-37.682,20.06-50.91,38.182c-3.349,4.488-6.281,9.335-8.927,14.371c-0.63,1.276-1.341,2.515-1.907,3.828
						c-0.589,1.302-1.178,2.607-1.769,3.914c-1.057,2.667-2.149,5.333-3.02,8.091c-1.795,5.489-3.281,11.141-4.171,16.938
						c-0.913,5.79-1.393,11.684-1.433,17.62c0.04,5.939,0.516,11.835,1.428,17.627c0.891,5.798,2.373,11.453,4.168,16.944
						c0.872,2.759,1.964,5.426,3.02,8.094c0.591,1.307,1.181,2.612,1.769,3.915c0.564,1.314,1.278,2.553,1.907,3.83
						c2.646,5.037,5.578,9.887,8.928,14.375c13.229,18.128,31.593,31.197,50.918,38.192c4.849,1.721,9.74,3.127,14.644,4.176
						c4.915,0.972,9.81,1.764,14.68,2.052c9.726,0.758,19.249,0.103,28.245-1.559c9.013-1.624,17.462-4.445,25.195-7.956
						c7.737-3.515,14.757-7.771,20.931-12.513c12.402-9.459,21.501-20.549,27.844-31.146c3.211-5.293,5.652-10.532,7.632-15.444
						c2.021-4.904,3.38-9.567,4.498-13.774c1.039-4.232,1.765-8.038,2.233-11.36c0.207-1.664,0.434-3.197,0.578-4.606
						c0.112-1.411,0.213-2.691,0.304-3.835c0.112-1.143,0.136-2.154,0.158-3.025c0.027-0.869,0.05-1.6,0.068-2.191
						C367.38,214.202,367.413,213.599,367.413,213.599s0.003,0.603-0.018,1.78c-0.011,0.591-0.026,1.323-0.042,2.193
						c-0.013,0.872-0.029,1.885-0.132,3.029c-0.083,1.146-0.177,2.428-0.28,3.841c-0.136,1.411-0.355,2.947-0.554,4.615
						c-0.453,3.329-1.164,7.144-2.19,11.387c-1.105,4.219-2.452,8.896-4.464,13.817c-1.971,4.929-4.406,10.187-7.613,15.501
						c-6.336,10.639-15.442,21.781-27.871,31.29c-6.188,4.767-13.227,9.048-20.988,12.586c-7.756,3.534-16.236,6.376-25.282,8.015
						c-9.03,1.677-18.591,2.344-28.357,1.591c-4.89-0.286-9.807-1.076-14.743-2.049c-4.926-1.049-9.839-2.458-14.711-4.184
						c-19.415-7.014-37.869-20.133-51.165-38.341c-3.367-4.509-6.314-9.38-8.973-14.44c-0.633-1.282-1.349-2.527-1.917-3.848
						c-0.592-1.308-1.184-2.619-1.778-3.933c-1.062-2.68-2.159-5.36-3.035-8.132c-1.805-5.517-3.295-11.199-4.19-17.025
						c-0.917-5.819-1.396-11.743-1.436-17.71c0.04-5.965,0.522-11.886,1.44-17.704c0.894-5.824,2.387-11.503,4.192-17.018
						c0.876-2.771,1.974-5.449,3.036-8.129c0.594-1.313,1.186-2.624,1.778-3.932c0.569-1.319,1.284-2.564,1.917-3.846
						c2.66-5.059,5.607-9.928,8.973-14.435c13.295-18.202,31.746-31.317,51.158-38.331c4.871-1.726,9.784-3.134,14.709-4.183
						c4.936-0.973,9.852-1.764,14.742-2.049c9.765-0.753,19.325-0.087,28.355,1.589c9.046,1.639,17.525,4.48,25.281,8.013
						c7.761,3.538,14.8,7.817,20.988,12.584c12.43,9.508,21.537,20.649,27.874,31.289c3.208,5.314,5.643,10.573,7.614,15.502
						c2.013,4.921,3.359,9.598,4.465,13.818c1.026,4.244,1.737,8.06,2.19,11.389c0.199,1.668,0.418,3.204,0.555,4.616
						c0.103,1.414,0.196,2.695,0.279,3.842c0.104,1.145,0.119,2.157,0.133,3.03c0.017,0.87,0.031,1.602,0.042,2.193
						C367.416,212.997,367.413,213.599,367.413,213.599z"/>
				</g>
			</g>
			<g>
				<path style="fill:#FF725E;" d="M258.967,338.407v-1c69.66,0,126.333-56.673,126.333-126.333
					c0-69.66-56.673-126.333-126.333-126.333c-69.66,0-126.333,56.673-126.333,126.333h-1c0-70.211,57.121-127.333,127.333-127.333
					c70.212,0,127.333,57.122,127.333,127.333C386.3,281.285,329.179,338.407,258.967,338.407z"/>
			</g>
			<g>
				<path style="fill:#FF725E;" d="M257.672,325.839v-5c59.133,0,107.24-48.107,107.24-107.24c0-59.132-48.107-107.24-107.24-107.24
					v-5c61.89,0,112.24,50.351,112.24,112.24C369.913,275.489,319.562,325.839,257.672,325.839z"/>
			</g>
			<g>
				<path style="fill:#FF725E;" d="M388.3,211.074h-5c0-68.558-55.775-124.333-124.333-124.333
					c-68.557,0-124.333,55.775-124.333,124.333h-5c0-71.314,58.019-129.333,129.333-129.333
					C330.282,81.741,388.3,139.76,388.3,211.074z"/>
			</g>
			<g>
				<path style="fill:#FF725E;" d="M259.934,357.616c-79.455,0-144.097-64.642-144.097-144.098
					c0-79.456,64.642-144.097,144.097-144.097v5c-76.698,0-139.097,62.399-139.097,139.097c0,76.698,62.398,139.098,139.097,139.098
					s139.098-62.399,139.098-139.098h5C404.032,292.975,339.39,357.616,259.934,357.616z"/>
			</g>
			<g>
				<g>
					<path style="fill:#FF725E;" d="M257.657,374.53c-0.837,0-1.674-0.006-2.508-0.02l0.016-1c0.83,0.014,1.661,0.02,2.492,0.02
						V374.53z"/>
				</g>
				<g>
					<path style="fill:#FF725E;" d="M245.022,374.036c-1.671-0.131-3.368-0.29-5.044-0.475l0.109-0.994
						c1.665,0.184,3.352,0.342,5.013,0.473L245.022,374.036z M229.948,372.134c-1.671-0.292-3.346-0.613-4.976-0.953l0.204-0.978
						c1.62,0.338,3.283,0.656,4.945,0.947L229.948,372.134z M215.123,368.803c-1.618-0.446-3.254-0.926-4.863-1.425l0.296-0.955
						c1.6,0.496,3.225,0.973,4.833,1.415L215.123,368.803z M200.67,364.061c-1.577-0.603-3.163-1.238-4.715-1.89l0.387-0.922
						c1.542,0.647,3.119,1.279,4.686,1.878L200.67,364.061z M186.731,357.953c-1.51-0.75-3.027-1.534-4.51-2.331l0.474-0.881
						c1.473,0.792,2.981,1.57,4.481,2.316L186.731,357.953z M173.443,350.544c-1.435-0.893-2.87-1.817-4.265-2.748l0.556-0.832
						c1.386,0.926,2.812,1.844,4.238,2.73L173.443,350.544z M160.927,341.909c-1.337-1.019-2.677-2.074-3.983-3.138l0.632-0.775
						c1.297,1.057,2.629,2.105,3.958,3.118L160.927,341.909z M149.289,332.133c-1.246-1.151-2.479-2.329-3.667-3.499l0.702-0.713
						c1.18,1.163,2.405,2.333,3.643,3.478L149.289,332.133z M138.631,321.301c-1.125-1.257-2.241-2.544-3.318-3.827l0.766-0.643
						c1.07,1.274,2.18,2.555,3.297,3.804L138.631,321.301z M129.048,309.516c-1.005-1.363-1.994-2.75-2.94-4.121l0.823-0.568
						c0.94,1.363,1.923,2.741,2.921,4.096L129.048,309.516z M120.626,296.881c-0.86-1.434-1.713-2.906-2.533-4.378l0.873-0.486
						c0.815,1.462,1.663,2.925,2.518,4.351L120.626,296.881z M113.446,283.51c-0.727-1.523-1.434-3.07-2.103-4.597l0.916-0.4
						c0.664,1.517,1.367,3.053,2.089,4.567L113.446,283.51z M107.577,269.524c-0.576-1.579-1.134-3.19-1.659-4.788l0.95-0.313
						c0.521,1.588,1.076,3.188,1.648,4.759L107.577,269.524z M103.064,255.014c-0.423-1.631-0.824-3.287-1.192-4.924l0.976-0.22
						c0.366,1.626,0.765,3.273,1.185,4.894L103.064,255.014z M99.961,240.14c-0.264-1.654-0.505-3.341-0.717-5.015l0.992-0.126
						c0.211,1.664,0.451,3.34,0.712,4.984L99.961,240.14z M98.288,225.039c-0.105-1.671-0.186-3.374-0.24-5.061l0.999-0.032
						c0.054,1.676,0.134,3.369,0.238,5.03L98.288,225.039z M99.045,209.876l-1-0.03c0.052-1.686,0.131-3.389,0.235-5.061
						l0.998,0.063C99.174,206.509,99.096,208.201,99.045,209.876z M100.219,194.823l-0.992-0.125c0.21-1.669,0.45-3.356,0.712-5.016
						l0.987,0.156C100.666,191.488,100.428,193.165,100.219,194.823z M102.816,179.949l-0.975-0.219
						c0.368-1.639,0.767-3.296,1.188-4.926l0.969,0.25C103.58,176.674,103.182,178.321,102.816,179.949z M106.824,165.392
						l-0.95-0.312c0.523-1.596,1.081-3.212,1.659-4.804l0.94,0.342C107.899,162.2,107.344,163.806,106.824,165.392z
						 M112.219,151.259l-0.916-0.401c0.673-1.537,1.383-3.091,2.11-4.618l0.903,0.43
						C113.593,148.187,112.888,149.731,112.219,151.259z M118.939,137.713l-0.874-0.486c0.821-1.473,1.675-2.951,2.541-4.393
						l0.857,0.515C120.604,134.782,119.754,136.25,118.939,137.713z M126.916,124.875l-0.823-0.567
						c0.953-1.383,1.944-2.772,2.944-4.129l0.805,0.594C128.848,122.121,127.863,123.501,126.916,124.875z M136.072,112.858
						l-0.766-0.643c1.081-1.287,2.198-2.576,3.32-3.83l0.745,0.667C138.257,110.298,137.147,111.578,136.072,112.858z
						 M146.321,101.763l-0.702-0.713c1.192-1.174,2.426-2.351,3.665-3.497l0.679,0.734
						C148.732,99.427,147.506,100.596,146.321,101.763z M157.568,91.69l-0.631-0.775c1.304-1.061,2.642-2.115,3.977-3.133
						l0.606,0.795C160.194,89.588,158.864,90.636,157.568,91.69z M169.712,82.73l-0.555-0.832c1.388-0.926,2.818-1.848,4.253-2.741
						l0.528,0.849C172.513,80.894,171.09,81.81,169.712,82.73z M182.644,74.965l-0.474-0.881c1.484-0.797,2.995-1.579,4.491-2.322
						l0.445,0.896C185.62,73.396,184.119,74.173,182.644,74.965z M196.249,68.47l-0.387-0.922c1.552-0.652,3.129-1.285,4.688-1.881
						l0.357,0.934C199.358,67.194,197.792,67.823,196.249,68.47z M210.419,63.301l-0.297-0.955c1.608-0.5,3.244-0.981,4.861-1.429
						l0.267,0.964C213.643,62.326,212.018,62.803,210.419,63.301z M225.034,59.508l-0.205-0.979
						c1.651-0.345,3.325-0.667,4.976-0.957l0.173,0.985C228.337,58.846,226.674,59.165,225.034,59.508z M239.943,57.13l-0.11-0.994
						c1.671-0.186,3.368-0.347,5.044-0.48l0.079,0.997C243.291,56.785,241.604,56.945,239.943,57.13z"/>
				</g>
				<g>
					<path style="fill:#FF725E;" d="M255.165,56.171l-0.016-1c0.835-0.013,1.671-0.019,2.508-0.019v1
						C256.826,56.152,255.994,56.158,255.165,56.171z"/>
				</g>
			</g>
		</g>
	</g>
</g>
<g id="Email">
	<g>
		<g>
			<g>
				
					<rect x="413.271" y="247.321" transform="matrix(0.9998 -0.0209 0.0209 0.9998 -5.4533 9.259)" style="fill:#FF725E;" width="54.458" height="36.706"/>
			</g>
		</g>
		<g>
			<g>
				<g>
					<g>
						<path style="fill:#263238;" d="M467.523,247.194c0.011,0.013-0.16,0.184-0.497,0.499c-0.375,0.343-0.87,0.795-1.488,1.36
							c-1.347,1.201-3.229,2.878-5.538,4.937c-4.746,4.167-11.242,9.871-18.438,16.188l-0.152,0.133l-0.161-0.123
							c-0.123-0.094-0.256-0.196-0.389-0.298c-7.679-5.908-14.628-11.255-19.709-15.164c-2.475-1.934-4.493-3.511-5.938-4.64
							c-0.664-0.533-1.196-0.959-1.599-1.281c-0.362-0.297-0.548-0.46-0.537-0.474c0.01-0.014,0.216,0.123,0.598,0.394
							c0.417,0.304,0.967,0.706,1.655,1.208c1.468,1.099,3.518,2.633,6.034,4.515c5.103,3.879,12.083,9.185,19.797,15.049
							c0.133,0.102,0.266,0.204,0.389,0.298l-0.313,0.01c7.233-6.274,13.763-11.939,18.534-16.077
							c2.353-2.01,4.269-3.647,5.641-4.819c0.643-0.536,1.158-0.965,1.549-1.29C467.319,247.328,467.512,247.182,467.523,247.194z"
							/>
					</g>
				</g>
			</g>
		</g>
		<g>
			<g>
				<g>
					<path style="fill:#263238;" d="M413.844,285.03c-0.106-0.086,3.883-5.202,8.909-11.426c5.028-6.226,9.188-11.202,9.294-11.116
						c0.106,0.086-3.882,5.201-8.91,11.426C418.112,280.139,413.95,285.116,413.844,285.03z"/>
				</g>
			</g>
		</g>
		<g>
			<g>
				<g>
					<path style="fill:#263238;" d="M450.136,261.652c0.106-0.086,4.256,4.823,9.268,10.964c5.014,6.143,8.992,11.191,8.886,11.277
						c-0.106,0.086-4.255-4.822-9.269-10.965C454.008,266.787,450.03,261.738,450.136,261.652z"/>
				</g>
			</g>
		</g>
	</g>
</g>
<g id="Signal">
	<g>
		<g>
			<g>
				<g>
					<path style="fill:#455A64;" d="M417.291,97.227c-0.011,2.493-2.041,4.504-4.534,4.492c-2.492-0.012-4.504-2.042-4.492-4.534
						c0.012-2.493,2.041-4.504,4.534-4.492C415.292,92.704,417.303,94.734,417.291,97.227z"/>
				</g>
				<g>
					<g>
						<path style="fill:#455A64;" d="M403.758,91.425c4.956-5.204,13.011-5.363,18.095-0.239c2.304,2.322,5.911-1.25,3.606-3.573
							c-6.975-7.029-18.424-6.988-25.274,0.205C397.933,90.184,401.499,93.797,403.758,91.425L403.758,91.425z"/>
					</g>
				</g>
				<g>
					<g>
						<path style="fill:#455A64;" d="M388.429,70.418c6.863-5.933,15.056-9.667,24.23-9.69c9.093-0.022,18.059,3.205,24.719,9.46
							c2.379,2.234,5.994-1.331,3.606-3.573c-7.629-7.164-17.859-10.989-28.302-10.963c-10.557,0.026-19.939,4.341-27.826,11.16
							C382.38,68.952,385.966,72.547,388.429,70.418L388.429,70.418z"/>
					</g>
				</g>
				<g>
					<g>
						<path style="fill:#455A64;" d="M394.478,82.06c4.601-4.974,11.048-8.089,17.863-8.244c7-0.16,13.759,2.724,18.625,7.723
							c2.282,2.345,5.888-1.229,3.606-3.573c-5.759-5.916-13.919-9.416-22.208-9.227c-8.106,0.185-15.961,3.77-21.459,9.714
							C388.69,80.848,392.254,84.464,394.478,82.06L394.478,82.06z"/>
					</g>
				</g>
			</g>
		</g>
	</g>
</g>
<g id="GPS">
	<g>
		<g>
			<path style="fill:#455A64;" d="M77.902,264.75c0-12.934-11.689-23.139-25.08-20.626c-8.423,1.581-15.135,8.46-16.611,16.902
				c-0.922,5.277,0.167,10.241,2.574,14.337h-0.012l0.06,0.079c0.806,1.358,1.815,2.328,2.835,3.755l12.198,16.158
				c1.518,2.011,4.538,2.011,6.056,0l11.995-15.892c0,0,2.239-2.67,3.051-4.042l0.043-0.058h-0.008
				C76.834,272.246,77.902,268.627,77.902,264.75z M56.894,273.897c-5.106,0-9.246-4.139-9.246-9.246
				c0-5.106,4.139-9.246,9.246-9.246c5.106,0,9.246,4.139,9.246,9.246C66.139,269.758,62,273.897,56.894,273.897z"/>
		</g>
	</g>
</g>
<g id="Money">
	<g>
		<g>
			<g>
				<g>
					<g>
						<path style="fill:#FF725E;" d="M93.65,106.9c1.008,15.238-10.556,28.41-25.828,29.422
							c-15.273,1.011-28.473-10.522-29.481-25.761c-1.009-15.238,10.555-28.41,25.828-29.421
							C79.442,80.129,92.641,91.662,93.65,106.9z"/>
					</g>
				</g>
				<g style="opacity:0.3;">
					<g>
						<g>
							<path d="M87.021,106.676c-0.128,0.013-0.279-0.906-0.725-2.497c-0.453-1.582-1.245-3.86-2.859-6.298
								c-0.806-1.214-1.811-2.462-3.044-3.645c-1.242-1.17-2.696-2.289-4.378-3.205c-0.838-0.461-1.726-0.883-2.664-1.229
								c-0.936-0.351-1.913-0.657-2.931-0.867c-1.015-0.213-2.063-0.374-3.135-0.431c-1.071-0.058-2.161-0.04-3.259,0.06
								c-1.097,0.115-2.171,0.308-3.21,0.572c-1.041,0.263-2.038,0.624-2.993,1.03c-0.958,0.404-1.858,0.893-2.708,1.419
								c-0.854,0.521-1.642,1.109-2.375,1.722c-1.472,1.224-2.683,2.604-3.673,3.993c-0.98,1.399-1.724,2.818-2.28,4.166
								c-1.109,2.704-1.444,5.092-1.582,6.732c-0.129,1.648-0.098,2.579-0.227,2.59c-0.094,0.011-0.339-0.902-0.403-2.605
								c-0.054-1.692,0.111-4.211,1.142-7.122c0.516-1.449,1.243-2.987,2.238-4.511c1.005-1.513,2.26-3.024,3.813-4.371
								c0.773-0.675,1.609-1.321,2.519-1.896c0.907-0.58,1.87-1.119,2.898-1.565c1.026-0.449,2.1-0.845,3.222-1.135
								c1.12-0.292,2.279-0.502,3.461-0.625c1.184-0.108,2.36-0.125,3.516-0.056c1.157,0.067,2.287,0.249,3.38,0.49
								c1.095,0.238,2.145,0.581,3.146,0.974c1.004,0.388,1.95,0.859,2.839,1.372c1.783,1.021,3.308,2.258,4.588,3.549
								c1.27,1.302,2.283,2.67,3.07,3.992c1.575,2.656,2.226,5.095,2.502,6.766C87.179,105.725,87.115,106.668,87.021,106.676z"/>
						</g>
					</g>
				</g>
			</g>
			<g style="opacity:0.3;">
				<g>
					<g>
						<g>
							<path d="M69.211,121.143l0.296,3.667l-3.274,0.263l-0.288-3.568c-3.257,0.065-6.45-0.698-8.364-1.961l1.478-4.14
								c1.735,1.08,4.163,1.773,6.54,1.812l-0.442-5.468c-3.706-0.59-7.863-1.473-8.241-6.156c-0.28-3.471,2-6.653,7.126-7.66
								l-0.293-3.635l3.275-0.264l0.288,3.57c2.471-0.002,4.914,0.46,6.807,1.46l-1.311,4.16c-1.747-0.814-3.494-1.234-5.147-1.299
								l0.45,5.567c3.702,0.557,7.795,1.447,8.168,6.063C76.552,116.959,74.301,120.106,69.211,121.143z M64.77,106.935
								l-0.376-4.649c-1.703,0.533-2.314,1.538-2.227,2.619C62.259,106.05,63.292,106.594,64.77,106.935z M71.038,114.372
								c-0.093-1.147-1.092-1.691-2.54-2.07l0.365,4.519C70.471,116.329,71.123,115.42,71.038,114.372z"/>
						</g>
					</g>
				</g>
			</g>
		</g>
		<g>
			<g>
				<g>
					<path style="fill:#263238;" d="M44.92,110.126c0.056-0.006,0.134,0.923,0.447,2.559c0.328,1.631,1.037,3.972,2.542,6.538
						c0.733,1.294,1.746,2.578,2.921,3.864c1.242,1.222,2.653,2.457,4.347,3.451c1.692,0.977,3.575,1.853,5.65,2.355
						c2.07,0.503,4.281,0.722,6.54,0.603c2.256-0.179,4.42-0.688,6.405-1.46c1.991-0.772,3.743-1.888,5.291-3.08
						c1.549-1.209,2.785-2.62,3.855-3.995c0.995-1.43,1.831-2.836,2.386-4.216c1.154-2.741,1.548-5.156,1.658-6.815
						c0.095-1.663,0.05-2.594,0.106-2.596c0.018-0.001,0.039,0.229,0.063,0.671c0.004,0.441,0.095,1.096,0.034,1.936
						c-0.049,1.678-0.39,4.137-1.521,6.946c-0.544,1.412-1.375,2.857-2.377,4.327c-1.076,1.415-2.328,2.867-3.904,4.115
						c-1.575,1.23-3.364,2.382-5.402,3.179c-2.032,0.797-4.25,1.323-6.561,1.506c-2.314,0.123-4.581-0.106-6.7-0.628
						c-2.125-0.522-4.049-1.428-5.773-2.439c-1.726-1.029-3.158-2.303-4.411-3.564c-1.186-1.325-2.201-2.648-2.926-3.976
						c-1.491-2.635-2.153-5.028-2.424-6.685c-0.172-0.824-0.167-1.486-0.222-1.924C44.912,110.359,44.902,110.128,44.92,110.126z"/>
				</g>
			</g>
		</g>
	</g>
</g>
<g id="Character_1_">
	<g>
		<g>
			<path style="fill:#263238;" d="M79.246,413.07c0,0,6.715,4.342,9.817,4.188c3.103-0.154,15.287-15.307,15.287-15.307
				l-6.366-4.755l-15.643,2.599l-3.095,13.137"/>
		</g>
		<g>
			<g>
				<path style="fill:#263238;" d="M212.284,191.464c2.748,9.986-0.022,21.307-7.069,28.897c-3.212,3.46-7.305,6.285-9.334,10.548
					c-2.248,4.723-1.522,10.272-2.522,15.406c-1,5.134-5.332,10.605-10.412,9.361c4.741,7.03,11.946,12.114,19.665,15.625
					c7.719,3.511,16.003,5.572,24.233,7.615c4.578,1.136,9.519,2.253,13.898,0.498c5.669-2.272,8.484-8.508,10.755-14.178
					c6.595-16.469,13.191-32.937,19.786-49.406"/>
			</g>
			<g>
				<g>
					<g>
						<g>
							<path style="fill:#B5715A;" d="M279.995,171.755c-0.006-3.837-2.948-7.031-6.771-7.354l-34.874-15.963
								c-12.586-1.061-25.155,21.47-25.681,34.09c-0.583,14.02,1.237,30.879,3.119,41.29c3.784,20.937,17.911,21.338,17.911,21.338
								l1.199,33.861l43.767-0.077L279.995,171.755z"/>
						</g>
						<g>
							<g>
								<g>
									<g>
										<g>
											<g>
												<g>
													<g>
														<g>
															<g>
																<g>
																	<g>
																		<g>
																			<path style="fill:#263238;" d="M221.85,199.236c-0.02,1.424,1.169,2.615,2.656,2.663
																				c1.484,0.048,2.705-1.064,2.725-2.489c0.02-1.424-1.169-2.616-2.653-2.664
																				C223.092,196.698,221.87,197.813,221.85,199.236z"/>
																		</g>
																	</g>
																</g>
															</g>
														</g>
													</g>
												</g>
											</g>
										</g>
									</g>
								</g>
							</g>
						</g>
						<g>
							<g>
								<g>
									<g>
										<g>
											<g>
												<g>
													<g>
														<g>
															<g>
																<g>
																	<g>
																		<g>
																			<g>
																				<path style="fill:#263238;" d="M218.397,192.08c0.298,0.253,2.411-0.086,5.24,0.541
																					c2.83,0.605,4.787,1.831,5.123,1.715c0.163-0.048-0.118-0.448-0.969-0.994
																					c-0.837-0.542-2.303-1.213-4.066-1.597c-1.763-0.383-3.299-0.367-4.206-0.204
																					C218.594,191.701,218.249,191.963,218.397,192.08z"/>
																			</g>
																		</g>
																	</g>
																</g>
															</g>
														</g>
													</g>
												</g>
											</g>
										</g>
									</g>
								</g>
							</g>
						</g>
						<g>
							<g>
								<g>
									<g>
										<g>
											<g>
												<g>
													<g>
														<g>
															<g>
																<g>
																	<g>
																		<g>
																			<path style="fill:#263238;" d="M249.191,197.845c-0.02,1.424,1.169,2.615,2.656,2.663
																				c1.484,0.048,2.705-1.065,2.725-2.489c0.02-1.424-1.169-2.616-2.653-2.664
																				C250.432,195.306,249.211,196.421,249.191,197.845z"/>
																		</g>
																	</g>
																</g>
															</g>
														</g>
													</g>
												</g>
											</g>
										</g>
									</g>
								</g>
							</g>
						</g>
						<g>
							<g>
								<g>
									<g>
										<g>
											<g>
												<g>
													<g>
														<g>
															<g>
																<g>
																	<g>
																		<g>
																			<g>
																				<path style="fill:#263238;" d="M245.219,193.664c0.42,0.095,2.249-1.376,5.273-2.255
																					c3.014-0.902,5.532-0.714,5.789-1.009c0.129-0.135-0.349-0.389-1.454-0.483
																					c-1.086-0.099-2.838,0.009-4.721,0.564c-1.882,0.557-3.333,1.393-4.109,2.041
																					C245.207,193.176,245.017,193.626,245.219,193.664z"/>
																			</g>
																		</g>
																	</g>
																</g>
															</g>
														</g>
													</g>
												</g>
											</g>
										</g>
									</g>
								</g>
							</g>
						</g>
						<g>
							<g>
								<g>
									<g>
										<g>
											<g>
												<g>
													<g>
														<g>
															<g>
																<g>
																	<g>
																		<g>
																			<path style="fill:#263238;" d="M235.021,213.018c0.01-0.165-1.798-0.438-4.727-0.749
																				c-0.741-0.061-1.445-0.192-1.581-0.695c-0.186-0.531,0.107-1.336,0.447-2.205
																				c0.658-1.807,1.347-3.699,2.069-5.684c2.869-8.091,4.929-14.738,4.603-14.85
																				c-0.327-0.113-2.918,6.354-5.787,14.445c-0.689,1.995-1.349,3.896-1.976,5.716
																				c-0.262,0.847-0.724,1.812-0.322,2.914c0.211,0.549,0.763,0.939,1.241,1.057
																				c0.477,0.135,0.894,0.133,1.261,0.147C233.19,213.208,235.014,213.183,235.021,213.018z"/>
																		</g>
																	</g>
																</g>
															</g>
														</g>
													</g>
												</g>
											</g>
										</g>
									</g>
								</g>
							</g>
						</g>
						<g>
							<g>
								<g>
									<g>
										<g>
											<g>
												<g>
													<g>
														<g>
															<g>
																<g>
																	<g>
																		<path style="fill:#884C3B;" d="M233.703,245.362c0,0,14.152,0.61,27.974-8.105c0,0-6.163,15.461-27.23,13.944
																			L233.703,245.362z"/>
																	</g>
																</g>
															</g>
														</g>
													</g>
												</g>
											</g>
										</g>
									</g>
								</g>
							</g>
						</g>
						<g>
							<g>
								<g>
									<g>
										<g>
											<g>
												<g>
													<g>
														<g>
															<g>
																<g>
																	<g>
																		<path style="fill:#884C3B;" d="M235.652,220.055c1.387-2.187,3.526-3.674,5.484-3.813
																			c1.359-0.097,2.649,0.47,3.309,1.743c0.661,1.272,0.582,3.292-0.353,4.831c-1.052,1.734-2.893,2.467-4.344,2.228
																			c-1.451-0.24-2.599-1.255-3.683-2.278c-0.299-0.283-0.605-0.581-0.759-1.022
																			c-0.155-0.441-0.121-1.068,0.194-1.526"/>
																	</g>
																</g>
															</g>
														</g>
													</g>
												</g>
											</g>
										</g>
									</g>
								</g>
							</g>
						</g>
						<g>
							<g>
								<g>
									<g>
										<g>
											<g>
												<g>
													<g>
														<g>
															<g>
																<g>
																	<g>
																		<g>
																			<path style="fill:#263238;" d="M243.596,214.841c-0.472-0.017-0.411,3.13-3.057,5.421
																				c-2.641,2.298-6.003,2.016-6.018,2.457c-0.04,0.198,0.76,0.595,2.176,0.603c1.39,0.018,3.409-0.471,5.028-1.873
																				c1.614-1.405,2.281-3.247,2.361-4.54C244.178,215.59,243.811,214.818,243.596,214.841z"/>
																		</g>
																	</g>
																</g>
															</g>
														</g>
													</g>
												</g>
											</g>
										</g>
									</g>
								</g>
							</g>
						</g>
						<g>
							<g>
								<g>
									<g>
										<g>
											<g>
												<g>
													<g>
														<g>
															<path style="fill:#263238;" d="M243.007,179.891c0.38,0.748,3.208,0.025,6.635,0.018
																c3.427-0.076,6.271,0.579,6.633-0.178c0.159-0.361-0.406-1.038-1.6-1.661c-1.184-0.623-3.014-1.128-5.069-1.106
																c-2.054,0.027-3.871,0.576-5.04,1.227C243.389,178.843,242.84,179.535,243.007,179.891z"/>
														</g>
													</g>
												</g>
											</g>
										</g>
									</g>
								</g>
							</g>
						</g>
						<g>
							<g>
								<g>
									<g>
										<g>
											<g>
												<g>
													<g>
														<g>
															<path style="fill:#263238;" d="M215.774,188.575c0.65,0.642,3.114-0.104,6.097-0.211
																c2.979-0.192,5.521,0.303,6.085-0.4c0.246-0.341-0.168-0.99-1.288-1.586c-1.103-0.593-2.936-1.055-4.985-0.954
																c-2.048,0.104-3.81,0.746-4.83,1.447C215.816,187.574,215.487,188.261,215.774,188.575z"/>
														</g>
													</g>
												</g>
											</g>
										</g>
									</g>
								</g>
							</g>
						</g>
						<g>
							<path style="fill:#263238;" d="M301.493,223.648c-1.813-9.316-7.476-39.175-15.813-54.743
								c-8.337-15.568-17.87-21.72-27.134-23.982c-9.264-2.262-16.089,1.264-20.16,5.08c-4.071,3.816-5.234,14.672-5.234,14.672
								s22.323,4.415,30.1,16.902c8.934,14.344,11.189,21.611,11.189,21.611l2.967,7.891c0,0,2.362,38.415,1.585,46.05
								l33.534,12.116C305.358,254.383,303.307,232.964,301.493,223.648z"/>
						</g>
						<g>
							<g>
								<path style="fill:#263238;" d="M234.524,164.51c0,0-14.726-0.76-19.079,13.69c-1.97,6.537-2.206,25.549-2.206,25.549
									s-3.149-15.068-2.665-23.577c0.485-8.509,4.469-19.344,10.837-25.443c6.193-5.931,11.466-8.768,22.799-8.35
									c0,0-1.618,3.224-4.413,7.583C238.398,156.145,236.197,156.394,234.524,164.51z"/>
							</g>
						</g>
					</g>
					<g>
						<g>
							<g>
								<g>
									<g>
										<g>
											<g>
												<g>
													<g>
														<g>
															<g>
																<g>
																	<g>
																		<g>
																			<g>
																				<g>
																					<g>
																						<g>
																							<path style="fill:#B5715A;" d="M274.313,204.299c0.123-4.655,5.113-7.877,9.198-5.642
																								c2.243,1.227,3.996,3.758,3.909,8.699c-0.232,13.176-13.412,10.224-13.429,9.846
																								C273.982,216.967,274.17,209.749,274.313,204.299z"/>
																						</g>
																					</g>
																				</g>
																			</g>
																		</g>
																	</g>
																</g>
															</g>
														</g>
													</g>
												</g>
											</g>
										</g>
									</g>
								</g>
							</g>
						</g>
						<g>
							<g>
								<g>
									<g>
										<g>
											<g>
												<g>
													<g>
														<g>
															<g>
																<g>
																	<g>
																		<g>
																			<g>
																				<g>
																					<g>
																						<g>
																							<g>
																								<path style="fill:#884C3B;" d="M278.105,212.281c0.059-0.041,0.227,0.165,0.612,0.35
																									c0.375,0.18,1.023,0.311,1.715,0.065c1.401-0.486,2.612-2.676,2.718-5.049
																									c0.055-1.198-0.177-2.345-0.585-3.298c-0.385-0.971-0.996-1.655-1.695-1.792
																									c-0.694-0.173-1.198,0.237-1.366,0.605c-0.183,0.365-0.104,0.63-0.174,0.651
																									c-0.038,0.033-0.279-0.226-0.163-0.768c0.059-0.26,0.219-0.569,0.533-0.817
																									c0.32-0.251,0.788-0.374,1.275-0.313c1.015,0.088,1.913,1.039,2.362,2.085
																									c0.504,1.052,0.793,2.34,0.731,3.686c-0.131,2.654-1.534,5.114-3.449,5.63
																									c-0.931,0.226-1.699-0.067-2.093-0.385C278.123,212.6,278.059,212.305,278.105,212.281z"/>
																							</g>
																						</g>
																					</g>
																				</g>
																			</g>
																		</g>
																	</g>
																</g>
															</g>
														</g>
													</g>
												</g>
											</g>
										</g>
									</g>
								</g>
							</g>
						</g>
					</g>
				</g>
			</g>
		</g>
		<g>
			<g>
				<path style="fill:#455A64;" d="M249.444,144.485c0.029,0.106-1.508,0.422-3.784,1.435c-1.148,0.483-2.421,1.256-3.731,2.234
					c-1.309,0.987-2.555,2.312-3.667,3.841c-2.215,3.085-3.449,6.362-4.266,8.716c-0.8,2.373-1.198,3.877-1.286,3.854
					c-0.035-0.009,0.032-0.392,0.183-1.08c0.139-0.691,0.403-1.675,0.753-2.887c0.733-2.398,1.925-5.744,4.195-8.908
					c1.139-1.567,2.435-2.922,3.797-3.916c1.362-0.985,2.688-1.742,3.876-2.19c0.576-0.267,1.131-0.418,1.607-0.577
					c0.475-0.166,0.896-0.263,1.242-0.335C249.053,144.518,249.436,144.45,249.444,144.485z"/>
			</g>
		</g>
		<g>
			<g>
				<path style="fill:#455A64;" d="M295.648,246.479c-0.008,0.003-0.048-0.091-0.117-0.277c-0.076-0.215-0.174-0.49-0.296-0.834
					c-0.29-0.726-0.561-1.843-0.861-3.293c-0.539-2.915-0.624-7.244-0.014-12.489c0.27-2.626,0.654-5.491,0.904-8.574
					c0.241-3.078,0.343-6.399-0.19-9.82c-0.55-3.411-1.8-6.881-3.699-10.133c-1.881-3.266-4.38-6.315-7.257-9.094
					c-5.789-5.576-12.547-9.362-18.646-12.684c-6.143-3.287-11.735-6.182-16.195-9.021c-4.474-2.812-7.9-5.378-10.212-7.211
					c-1.158-0.915-2.035-1.654-2.626-2.158c-0.274-0.241-0.492-0.433-0.664-0.584c-0.148-0.134-0.22-0.206-0.215-0.213
					s0.09,0.051,0.249,0.172c0.18,0.14,0.409,0.319,0.696,0.544c0.642,0.497,1.541,1.193,2.683,2.079
					c2.347,1.78,5.798,4.295,10.283,7.058c4.47,2.79,10.062,5.642,16.228,8.911c6.119,3.304,12.927,7.095,18.78,12.731
					c2.907,2.808,5.435,5.896,7.338,9.214c1.922,3.303,3.185,6.839,3.732,10.313c0.529,3.483,0.407,6.838,0.146,9.931
					c-0.27,3.098-0.676,5.96-0.968,8.578c-0.654,5.228-0.624,9.512-0.152,12.416c0.268,1.443,0.505,2.563,0.761,3.295
					c0.102,0.35,0.183,0.629,0.246,0.848C295.633,246.376,295.656,246.476,295.648,246.479z"/>
			</g>
		</g>
		<g>
			<g>
				<path style="fill:#263238;" d="M84.107,396.374c-0.016-0.028,0.257-0.22,0.785-0.506c0.527-0.288,1.323-0.649,2.349-0.982
					c2.035-0.674,5.091-1.122,8.347-0.45c3.257,0.672,5.886,2.293,7.488,3.718c0.81,0.712,1.398,1.359,1.769,1.831
					c0.372,0.472,0.546,0.756,0.52,0.776c-0.073,0.062-0.877-1-2.525-2.324c-1.629-1.323-4.205-2.84-7.357-3.49
					c-3.151-0.65-6.117-0.277-8.137,0.293C85.309,395.803,84.15,396.46,84.107,396.374z"/>
			</g>
		</g>
		<g>
			<g>
				<path style="fill:#263238;" d="M98.56,388.923c0.035-0.048,0.781,0.404,1.826,1.345c1.044,0.937,2.351,2.404,3.451,4.254
					c1.095,1.854,1.755,3.705,2.075,5.071c0.324,1.368,0.362,2.239,0.303,2.247c-0.168,0.044-0.65-3.429-2.827-7.052
					C101.257,391.141,98.441,389.049,98.56,388.923z"/>
			</g>
		</g>
		<g>
			<g>
				<path style="fill:#263238;" d="M174.919,474.706c0,0,10.623-51.746,33.133-61.705l89.249-2.622c0,0,29.492,19.752,34.213,64.621
					L174.919,474.706z"/>
			</g>
			<g>
				<path style="fill:#E0E0E0;" d="M234.144,254.448c0,0,2.629,16.498,20.285,14.579c17.656-1.919,24.564-11.898,24.564-11.898
					l24.544,7.834l3.861,47.471c-13.971,27.129-21.895,57.351-23.032,87.845c-0.191,5.13-0.375,10.758-3.793,14.588
					c-2.107,2.36-5.144,3.65-8.139,4.671c-19.019,6.484-40.702,4.698-58.402-4.813c0,0-7.5-81.217-6.58-83.52
					c0.919-2.303,13.202-70.622,13.202-70.622L234.144,254.448z"/>
			</g>
			<g>
				<path style="fill:#455A64;" d="M208.053,258.198c0,0-15.602,1.097-19.781,3.187c-4.18,2.09-58.867,70.709-60.956,71.754
					c-1.746,0.873-34.293,31.125-47.726,60.396c-2.65,5.775-4.695,13.969-0.343,19.466c0,0,15.687-19.695,25.104-11.05
					l42.123-42.687l44.003-25.668L208.053,258.198z"/>
			</g>
			<g style="opacity:0.3;">
				<g>
					<path d="M224.007,392.295c18.522-35.767,18.522-87.583,9.696-135.166l-7.925,67.613L224.007,392.295z"/>
				</g>
			</g>
			<g>
				<path style="fill:#455A64;" d="M184.063,270.736l1.391,58.021c0,0,5.575,64.24,6.62,64.24s4.18,22.641,0,32.742
					c-4.18,10.101-17.764,23.686-17.764,23.686l17.068,18.461c0,0,16.023-25.427,20.899-41.799
					c4.877-16.371,18.461-41.102,20.551-87.081c2.09-45.979,1.228-90.877,1.228-90.877l-13.419,9.717l-12.896,0.267L184.063,270.736
					z"/>
			</g>
			<g>
				<g>
					<path style="fill:#263238;" d="M214.946,422.96c0,0,0.04-0.189,0.141-0.55c0.107-0.38,0.257-0.911,0.452-1.601
						c0.393-1.43,0.964-3.505,1.696-6.167c1.416-5.369,3.422-13.16,5.289-22.911c0.93-4.875,1.814-10.243,2.423-16.044
						c0.29-2.901,0.514-5.91,0.58-9.012c0.06-3.099-0.026-6.303-0.518-9.531c-0.274-1.609-0.592-3.224-1.144-4.808
						c-0.537-1.587-1.041-3.205-1.717-4.783c-0.319-0.795-0.64-1.595-0.962-2.399c-0.357-0.789-0.716-1.583-1.077-2.38
						c-0.697-1.606-1.501-3.181-2.292-4.779c-3.202-6.377-6.94-12.765-10.989-19.162c-3.503-5.535-7.089-10.865-10.726-15.902
						l-0.142-0.197l0.186-0.153c9.342-7.666,18.137-14.883,26.116-21.43l0.171,0.403c-8.44,0.972-16.149,1.86-22.981,2.646
						l-0.459,0.053l0.291-0.357c6.57-8.049,11.89-14.568,15.582-19.092c1.839-2.234,3.271-3.975,4.258-5.174
						c0.481-0.576,0.853-1.021,1.118-1.337c0.254-0.299,0.395-0.444,0.395-0.444s-0.112,0.168-0.353,0.478
						c-0.255,0.324-0.613,0.78-1.077,1.37c-0.969,1.213-2.375,2.975-4.18,5.236c-3.661,4.548-8.937,11.103-15.452,19.197
						l-0.167-0.304c6.829-0.811,14.535-1.726,22.972-2.727l0.772-0.092l-0.6,0.494c-7.968,6.561-16.751,13.793-26.08,21.474
						l0.044-0.35c3.653,5.051,7.243,10.382,10.753,15.927c4.056,6.408,7.798,12.811,11.005,19.211
						c0.792,1.605,1.597,3.186,2.295,4.8c0.361,0.801,0.72,1.598,1.078,2.392c0.323,0.809,0.644,1.613,0.964,2.414
						c0.676,1.586,1.183,3.219,1.721,4.819c0.553,1.596,0.879,3.256,1.151,4.882c0.491,3.27,0.569,6.496,0.502,9.613
						c-0.074,3.119-0.308,6.138-0.608,9.048c-0.63,5.817-1.537,11.191-2.491,16.069c-1.916,9.757-3.978,17.539-5.455,22.895
						c-0.745,2.677-1.36,4.746-1.791,6.144c-0.216,0.684-0.383,1.21-0.502,1.587C215.02,422.782,214.946,422.96,214.946,422.96z"/>
				</g>
			</g>
			<g>
				<path style="fill:#455A64;" d="M278.964,242.887c0,0,8.637,13.319,9.54,14.242c0,0,36.5,10.336,38.653,14.684
					c8.887,17.942,1.71,24.388,0,49.047c-2.126,30.652-12.389,73.309-12.389,73.309s14.444,55.654,15.954,58.724
					c1.51,3.071-49.154,21.722-54.528,14.699c-5.373-7.023-9.595-31.203-9.595-31.203s-4.99-49.129-3.07-68.703
					c1.919-19.575,11.025-39.681,14.201-63.33C281.083,279.379,278.964,242.887,278.964,242.887z"/>
			</g>
			<g>
				<g>
					<path style="fill:#263238;" d="M265.447,379.967c-0.018-0.003,0.022-0.249,0.113-0.714c0.107-0.515,0.248-1.189,0.424-2.031
						c0.199-0.9,0.437-1.973,0.71-3.209c0.389-1.231,0.829-2.62,1.313-4.15c2.045-6.114,5.863-14.244,11.326-22.437
						c5.516-8.159,11.359-14.927,15.862-19.531c2.249-2.308,4.146-4.099,5.498-5.291c0.668-0.604,1.221-1.037,1.584-1.341
						c0.389-0.282,0.594-0.42,0.603-0.404c0,0-2.999,2.62-7.42,7.291c-4.424,4.658-10.202,11.44-15.695,19.565
						c-5.44,8.16-9.286,16.214-11.411,22.269c-0.509,1.515-0.971,2.89-1.381,4.108c-0.305,1.223-0.571,2.285-0.793,3.175
						c-0.215,0.831-0.387,1.497-0.518,2.006C265.539,379.732,265.465,379.971,265.447,379.967z"/>
				</g>
			</g>
			<g>
				<g>
					<path style="fill:#263238;" d="M288.504,257.749c0.016-0.008,0.143,0.228,0.368,0.683c0.242,0.502,0.562,1.168,0.963,2.001
						c0.839,1.798,2.014,4.314,3.455,7.402c0.725,1.571,1.516,3.285,2.363,5.122c0.424,0.922,0.862,1.875,1.312,2.856
						c0.444,0.984,0.943,1.98,1.314,3.06c1.603,4.274,3.362,8.964,5.209,13.888c1.446,3.886,2.839,7.626,4.141,11.124l0.1,0.268
						l-0.279,0.06c-3.516,0.76-6.795,1.468-9.754,2.107l0.148-0.298c2.022,4.446,3.698,8.132,4.893,10.762
						c0.557,1.258,1.001,2.262,1.328,3c0.134,0.319,0.244,0.58,0.334,0.794c0.072,0.181,0.104,0.276,0.094,0.281
						c-0.01,0.005-0.062-0.082-0.154-0.254c-0.105-0.207-0.234-0.46-0.391-0.768c-0.353-0.726-0.832-1.714-1.434-2.951
						c-1.236-2.611-2.969-6.27-5.059-10.685l-0.114-0.24l0.261-0.058c2.955-0.66,6.229-1.391,9.74-2.174l-0.179,0.328
						c-1.309-3.493-2.708-7.227-4.162-11.107c-1.832-4.927-3.577-9.618-5.167-13.895c-0.364-1.081-0.856-2.079-1.293-3.066
						c-0.442-0.984-0.872-1.939-1.287-2.864c-0.826-1.845-1.597-3.567-2.303-5.144c-1.378-3.114-2.5-5.652-3.302-7.465
						c-0.364-0.85-0.655-1.529-0.874-2.041C288.582,258.007,288.488,257.757,288.504,257.749z"/>
				</g>
			</g>
			<g>
				<path style="fill:#455A64;" d="M312.528,387.941c0,0,18.671,18.671,28.273,17.604c9.602-1.067,22.139-21.872,22.139-29.074
					c0-7.202-8.957-53.618-8.957-53.618l3.732-17.477l-35.035-0.664l-7.018,53.806L312.528,387.941z"/>
			</g>
			<g>
				<g>
					<path style="fill:#263238;" d="M335.241,263.224c0.008,0.003-0.034,0.133-0.126,0.384c-0.103,0.273-0.241,0.641-0.417,1.11
						c-0.193,0.495-0.426,1.094-0.7,1.798c-0.304,0.704-0.653,1.512-1.044,2.417c-0.809,1.809-1.873,3.989-3.202,6.472
						c-1.38,2.454-2.988,5.233-5.005,8.152c-4.009,5.838-9.442,12.401-16.567,18.522c-3.564,3.045-7.486,6.057-11.901,8.641
						c-4.398,2.588-9.312,4.766-14.643,5.872c-5.321,1.124-10.784,0.985-15.736-0.381c-2.473-0.693-4.816-1.694-6.928-2.984
						c-2.11-1.296-3.962-2.9-5.535-4.654c-3.161-3.52-5.339-7.464-7.343-11.103c-1.996-3.653-3.82-7.08-5.346-10.28
						c-1.518-3.204-2.728-6.182-3.605-8.861c-0.882-2.678-1.424-5.051-1.764-7.005c-0.618-3.926-0.481-6.131-0.481-6.131
						c0.009,0,0.023,0.137,0.043,0.403c0.018,0.291,0.042,0.683,0.074,1.182c0.067,1.038,0.23,2.565,0.565,4.511
						c0.37,1.939,0.937,4.292,1.841,6.948c0.898,2.657,2.127,5.611,3.66,8.794c1.542,3.18,3.382,6.589,5.393,10.232
						c2.016,3.625,4.198,7.534,7.32,10.988c1.554,1.723,3.37,3.287,5.44,4.553c2.072,1.26,4.373,2.239,6.804,2.917
						c4.869,1.336,10.249,1.471,15.494,0.363c5.26-1.091,10.124-3.241,14.491-5.802c4.384-2.557,8.293-5.545,11.847-8.565
						c7.106-6.069,12.543-12.577,16.576-18.367c2.029-2.894,3.653-5.65,5.053-8.083c1.349-2.462,2.437-4.623,3.273-6.415
						c0.407-0.897,0.77-1.696,1.086-2.393c0.292-0.695,0.54-1.288,0.745-1.776c0.197-0.461,0.351-0.822,0.465-1.09
						C335.174,263.345,335.233,263.221,335.241,263.224z"/>
				</g>
			</g>
			<g>
				<g>
					<path style="fill:#263238;" d="M327.85,264.502c0.012,0.013-0.19,0.235-0.586,0.646c-0.432,0.44-1.015,1.033-1.749,1.779
						c-1.569,1.564-3.78,3.766-6.496,6.472c-2.759,2.741-6.028,5.987-9.654,9.589c-1.862,1.764-3.919,3.543-6.315,5.023
						c-2.378,1.475-5.153,2.648-8.157,2.912c-2.977,0.285-6.011-0.205-8.495-1.631c-2.506-1.394-4.227-3.838-4.865-6.357
						c-0.703-2.512-0.798-4.985-0.827-7.263c-0.007-2.285,0.087-4.404,0.124-6.337c0.095-3.862-0.083-6.999-0.643-9.085
						c-0.318-1.026-0.564-1.827-0.848-2.322c-0.242-0.513-0.362-0.789-0.347-0.799c0.015-0.009,0.166,0.248,0.441,0.751
						c0.317,0.486,0.597,1.283,0.95,2.317c0.629,2.099,0.865,5.27,0.816,9.143c-0.014,1.938-0.086,4.059-0.061,6.328
						c0.046,2.261,0.162,4.705,0.856,7.132c0.635,2.436,2.261,4.716,4.658,6.05c2.373,1.356,5.304,1.833,8.192,1.555
						c2.91-0.256,5.595-1.385,7.94-2.828c2.353-1.445,4.394-3.193,6.252-4.937c1.864-1.743,3.52-3.526,5.174-5.094
						c1.633-1.582,3.157-3.058,4.551-4.409c2.766-2.658,5.017-4.821,6.615-6.356c0.762-0.717,1.368-1.287,1.816-1.709
						C327.611,264.686,327.837,264.489,327.85,264.502z"/>
				</g>
			</g>
			<g>
				<g>
					<path style="fill:#263238;" d="M195.41,400.434c-0.009,0.001-0.028-0.092-0.058-0.274c-0.031-0.212-0.069-0.479-0.117-0.811
						c-0.096-0.752-0.23-1.797-0.4-3.122c-0.338-2.753-0.818-6.668-1.409-11.489c-1.18-9.702-2.843-23.103-4.421-37.936
						c-0.78-7.42-1.441-14.497-1.972-20.939c-0.497-6.445-0.906-12.253-1.117-17.138c-0.134-2.441-0.203-4.651-0.264-6.592
						c-0.071-1.941-0.11-3.613-0.116-4.98c-0.009-1.337-0.017-2.389-0.022-3.148c0.003-0.335,0.005-0.604,0.007-0.819
						c0.005-0.185,0.011-0.279,0.02-0.279c0.009,0,0.02,0.094,0.033,0.278c0.012,0.214,0.026,0.483,0.044,0.818
						c0.029,0.758,0.069,1.809,0.12,3.144c0.037,1.366,0.106,3.036,0.204,4.974c0.088,1.939,0.184,4.146,0.341,6.584
						c0.258,4.879,0.705,10.68,1.228,17.118c0.557,6.436,1.231,13.508,2.011,20.924c1.578,14.826,3.182,28.233,4.269,37.947
						c0.522,4.83,0.947,8.752,1.245,11.509c0.128,1.33,0.229,2.378,0.302,3.133c0.027,0.334,0.048,0.603,0.066,0.816
						C195.417,400.338,195.418,400.433,195.41,400.434z"/>
				</g>
			</g>
			<g>
				<g>
					<path style="fill:#263238;" d="M357.714,305.376c0,0.007-0.056,0.012-0.166,0.016c-0.133,0.003-0.293,0.006-0.49,0.01
						c-0.465,0-1.099,0-1.905,0.001c-1.702-0.017-4.13-0.04-7.187-0.07c-6.203-0.094-14.951-0.228-25.292-0.385l0.236-0.192
						c-1.421,7.515-2.571,16.071-3.457,25.125c-1.584,16.608-2.239,31.712-3.058,42.62c-0.382,5.456-0.756,9.867-1.045,12.912
						c-0.155,1.494-0.276,2.667-0.363,3.503c-0.045,0.377-0.08,0.676-0.108,0.91c-0.027,0.205-0.045,0.309-0.054,0.308
						c-0.009-0.001-0.008-0.107,0.001-0.313c0.014-0.234,0.033-0.536,0.056-0.914c0.063-0.838,0.152-2.014,0.266-3.511
						c0.227-3.049,0.544-7.462,0.88-12.919c0.724-10.91,1.321-26.016,2.907-42.646c0.887-9.066,2.057-17.637,3.512-25.163
						l0.038-0.196l0.199,0.005c10.339,0.235,19.086,0.433,25.288,0.574c3.056,0.086,5.483,0.155,7.184,0.203
						c0.806,0.031,1.439,0.055,1.904,0.073c0.197,0.011,0.356,0.021,0.489,0.028C357.659,305.362,357.714,305.369,357.714,305.376z"
						/>
				</g>
			</g>
			<g>
				<g>
					<circle style="fill:#E0E0E0;" cx="349.161" cy="315.318" r="2.743"/>
				</g>
				<g>
					<g>
						<path style="fill:#263238;" d="M351.904,315.318c-0.044,0.001-0.056-0.244-0.184-0.645c-0.127-0.394-0.413-0.962-1.011-1.389
							c-0.578-0.429-1.51-0.658-2.401-0.317c-0.884,0.314-1.64,1.255-1.63,2.351c-0.01,1.096,0.746,2.037,1.63,2.351
							c0.891,0.341,1.823,0.112,2.401-0.317c0.598-0.427,0.884-0.995,1.011-1.389C351.848,315.562,351.86,315.317,351.904,315.318
							c0.027-0.002,0.087,0.246,0.013,0.694c-0.074,0.439-0.332,1.102-0.984,1.632c-0.629,0.53-1.714,0.855-2.788,0.475
							c-1.064-0.345-2-1.475-1.987-2.802c-0.013-1.328,0.923-2.457,1.987-2.802c1.074-0.379,2.158-0.055,2.788,0.475
							c0.652,0.53,0.91,1.194,0.984,1.632C351.991,315.072,351.931,315.32,351.904,315.318z"/>
					</g>
				</g>
			</g>
			<g>
				<g>
					<circle style="fill:#E0E0E0;" cx="271.282" cy="399.665" r="2.743"/>
				</g>
				<g>
					<g>
						<path style="fill:#263238;" d="M274.026,399.665c-0.044,0.001-0.056-0.244-0.184-0.645c-0.127-0.394-0.413-0.962-1.011-1.389
							c-0.578-0.429-1.51-0.658-2.401-0.317c-0.884,0.314-1.64,1.255-1.63,2.35c-0.01,1.096,0.746,2.037,1.63,2.351
							c0.891,0.341,1.823,0.112,2.401-0.317c0.598-0.427,0.884-0.995,1.011-1.389C273.97,399.909,273.981,399.664,274.026,399.665
							c0.027-0.002,0.087,0.246,0.012,0.694c-0.074,0.439-0.332,1.102-0.984,1.632c-0.63,0.53-1.714,0.855-2.788,0.475
							c-1.064-0.345-2-1.475-1.987-2.802c-0.013-1.328,0.923-2.457,1.987-2.802c1.074-0.379,2.158-0.055,2.788,0.475
							c0.652,0.53,0.91,1.194,0.984,1.632C274.113,399.419,274.052,399.666,274.026,399.665z"/>
					</g>
				</g>
			</g>
			<g>
				<g>
					<path style="fill:#E0E0E0;" d="M279.688,441.406c0,1.515-1.228,2.743-2.743,2.743c-1.515,0-2.743-1.228-2.743-2.743
						c0-1.515,1.228-2.743,2.743-2.743C278.46,438.663,279.688,439.891,279.688,441.406z"/>
				</g>
				<g>
					<g>
						<path style="fill:#263238;" d="M279.688,441.406c-0.044,0.001-0.056-0.244-0.184-0.645c-0.127-0.394-0.413-0.962-1.011-1.389
							c-0.578-0.429-1.51-0.658-2.401-0.317c-0.884,0.314-1.64,1.255-1.63,2.35c-0.01,1.096,0.746,2.037,1.63,2.351
							c0.891,0.341,1.823,0.112,2.401-0.317c0.598-0.427,0.884-0.995,1.011-1.389C279.632,441.65,279.643,441.405,279.688,441.406
							c0.027-0.002,0.087,0.246,0.012,0.694c-0.074,0.439-0.332,1.102-0.984,1.632c-0.63,0.53-1.714,0.854-2.788,0.475
							c-1.064-0.344-2-1.474-1.987-2.802c-0.013-1.327,0.923-2.457,1.987-2.802c1.074-0.379,2.158-0.055,2.788,0.475
							c0.652,0.53,0.91,1.194,0.984,1.632C279.775,441.16,279.714,441.408,279.688,441.406z"/>
					</g>
				</g>
			</g>
			<g>
				<g>
					<path style="fill:#263238;" d="M353.982,322.853c-0.007,0.144-7.178-0.069-16.015-0.474c-8.841-0.406-16-0.851-15.993-0.995
						c0.007-0.144,7.176,0.069,16.017,0.474C346.829,322.264,353.989,322.709,353.982,322.853z"/>
				</g>
			</g>
			<g>
				<g>
					<g>
						<g>
							<g>
								<g>
									<g>
										<g>
											<path style="fill:#E0E0E0;" d="M195.774,376.409l-10.322,4.125l-22.455-56.18c-5.285-13.223-20.343-19.681-33.566-14.396
												c-13.223,5.285-19.681,20.343-14.396,33.566l22.455,56.18l-10.322,4.126l-22.455-56.18
												c-7.56-18.914,1.678-40.454,20.592-48.013c18.914-7.56,40.453,1.678,48.013,20.592L195.774,376.409z"/>
										</g>
										<g>
											<g>
												<path style="fill:#263238;" d="M195.774,376.409c0,0-0.166-0.382-0.467-1.116c-0.302-0.743-0.744-1.83-1.322-3.254
													c-1.156-2.863-2.854-7.068-5.039-12.481c-2.18-5.413-4.845-12.032-7.938-19.714c-1.543-3.84-3.193-7.946-4.942-12.3
													c-1.827-4.31-3.303-9.109-6.144-13.476c-2.773-4.39-6.729-8.321-11.55-11.292c-0.607-0.363-1.206-0.75-1.829-1.1
													c-0.644-0.312-1.29-0.626-1.94-0.941c-1.273-0.692-2.687-1.091-4.053-1.636c-0.688-0.261-1.419-0.401-2.131-0.608
													c-0.722-0.169-1.427-0.435-2.173-0.528c-1.48-0.23-2.962-0.561-4.491-0.6c-3.041-0.321-6.153-0.007-9.265,0.441
													c-0.767,0.179-1.537,0.359-2.311,0.539l-1.162,0.271c-0.381,0.114-0.756,0.255-1.135,0.381
													c-0.757,0.259-1.517,0.52-2.279,0.781c-0.749,0.295-1.472,0.664-2.213,0.994c-5.918,2.688-11.145,7.25-14.954,12.935
													c-1.9,2.859-3.337,6.044-4.441,9.372c-1.035,3.358-1.554,6.895-1.655,10.478c-0.037,3.592,0.518,7.201,1.488,10.727
													c1.102,3.481,2.606,6.908,3.971,10.399c5.574,13.941,11.345,28.375,17.256,43.158c0.789,1.974,1.576,3.942,2.355,5.893
													l-0.338-0.145c3.511-1.403,6.97-2.785,10.322-4.125l-0.145,0.337c-4.464-11.175-8.832-22.107-13.076-32.73
													c-2.121-5.312-4.212-10.547-6.268-15.696c-1.028-2.575-2.047-5.128-3.058-7.659c-0.985-2.568-1.613-5.243-1.827-7.938
													c-0.338-5.391,0.968-10.771,3.668-15.202c0.353-0.543,0.642-1.128,1.046-1.632l1.16-1.542
													c0.86-0.948,1.672-1.942,2.651-2.752c0.911-0.887,1.954-1.602,2.965-2.343c0.518-0.352,1.073-0.644,1.605-0.967
													l0.805-0.473l0.845-0.389c2.211-1.131,4.605-1.758,6.968-2.217c2.387-0.389,4.787-0.421,7.127-0.193
													c4.66,0.58,9.072,2.287,12.607,4.971c1.826,1.27,3.331,2.877,4.743,4.488c1.296,1.708,2.49,3.467,3.325,5.37
													c0.216,0.471,0.43,0.941,0.644,1.408c0.189,0.474,0.377,0.946,0.564,1.416c0.374,0.939,0.745,1.87,1.113,2.792
													c0.735,1.844,1.455,3.654,2.162,5.427c2.824,7.094,5.419,13.615,7.76,19.495c4.667,11.758,8.317,20.954,10.745,27.071
													l-0.099-0.042c3.515-1.384,6.091-2.397,7.799-3.07c0.849-0.331,1.481-0.577,1.911-0.745
													C195.557,376.485,195.774,376.409,195.774,376.409s-0.192,0.087-0.604,0.257c-0.423,0.174-1.045,0.428-1.882,0.771
													c-1.71,0.694-4.289,1.74-7.807,3.168l-0.071,0.029l-0.029-0.071c-2.457-6.105-6.152-15.284-10.875-27.019
													c-2.358-5.874-4.972-12.387-7.816-19.473c-0.711-1.772-1.436-3.58-2.175-5.422c-0.369-0.921-0.742-1.851-1.119-2.79
													c-0.188-0.469-0.377-0.941-0.567-1.414c-0.212-0.46-0.425-0.922-0.638-1.387c-0.826-1.874-2.007-3.603-3.286-5.283
													c-1.395-1.583-2.878-3.163-4.678-4.409c-3.485-2.637-7.831-4.307-12.414-4.872c-2.303-0.221-4.661-0.185-7.008,0.2
													c-2.322,0.456-4.675,1.073-6.847,2.189l-0.83,0.383l-0.79,0.466c-0.522,0.319-1.067,0.606-1.576,0.952
													c-0.992,0.73-2.016,1.432-2.909,2.305c-0.962,0.796-1.757,1.775-2.601,2.706l-1.137,1.516
													c-0.396,0.495-0.679,1.071-1.025,1.604c-2.648,4.355-3.923,9.64-3.588,14.929c0.213,2.645,0.83,5.266,1.8,7.79
													c1.012,2.53,2.034,5.083,3.064,7.656c2.059,5.148,4.153,10.381,6.278,15.692c4.248,10.622,8.619,21.552,13.087,32.726
													l0.096,0.241l-0.241,0.096c-3.352,1.34-6.811,2.723-10.321,4.126l-0.242,0.097l-0.097-0.242
													c-0.78-1.951-1.567-3.919-2.355-5.893c-5.908-14.785-11.675-29.22-17.246-43.162c-1.365-3.5-2.858-6.895-3.981-10.446
													c-0.982-3.575-1.542-7.234-1.501-10.876c0.104-3.632,0.633-7.216,1.685-10.618c1.12-3.371,2.58-6.596,4.507-9.491
													c3.863-5.756,9.165-10.37,15.16-13.085c0.751-0.333,1.483-0.706,2.242-1.003c0.772-0.264,1.541-0.526,2.308-0.788
													c0.384-0.127,0.764-0.269,1.15-0.384l1.177-0.273c0.783-0.181,1.563-0.362,2.34-0.542c3.151-0.45,6.3-0.761,9.377-0.433
													c1.547,0.043,3.045,0.378,4.542,0.614c0.754,0.096,1.467,0.365,2.197,0.538c0.72,0.211,1.459,0.354,2.154,0.619
													c1.381,0.553,2.809,0.96,4.095,1.661c0.656,0.32,1.309,0.638,1.959,0.955c0.629,0.355,1.234,0.746,1.847,1.115
													c4.868,3.012,8.857,6.994,11.648,11.434c2.863,4.427,4.333,9.255,6.152,13.582c1.74,4.375,3.38,8.502,4.914,12.361
													c3.059,7.709,5.693,14.351,7.848,19.783c2.142,5.413,3.805,9.618,4.938,12.481c0.557,1.417,0.982,2.499,1.273,3.238
													C195.64,376.041,195.774,376.409,195.774,376.409z"/>
											</g>
										</g>
									</g>
								</g>
							</g>
							<g>
								<g>
									<g>
										<path style="fill:#FF725E;" d="M221.791,416.971l-78.43,31.348c-5.132,2.051-10.956-0.446-13.008-5.579l-24.174-60.481
											c-2.051-5.133,0.446-10.956,5.579-13.008l78.43-31.348c5.133-2.051,10.956,0.446,13.008,5.579l24.174,60.481
											C229.421,409.095,226.923,414.919,221.791,416.971z"/>
									</g>
								</g>
							</g>
							<g style="opacity:0.3;">
								<g>
									<g>
										<path d="M221.438,417.112l-77.725,31.066c-5.327,2.129-11.372-0.463-13.501-5.79l-23.892-59.776
											c-2.129-5.327,0.463-11.372,5.79-13.501l77.725-31.066c5.327-2.129,11.372,0.463,13.501,5.79l23.892,59.776
											C229.358,408.938,226.766,414.982,221.438,417.112z"/>
									</g>
								</g>
							</g>
							<g>
								<g>
									<g>
										<path style="fill:#FF725E;" d="M210.377,421.533l-71.463,28.563c-5.12,2.047-10.931-0.445-12.977-5.566l-24.191-60.525
											c-2.047-5.12,0.445-10.931,5.566-12.977l71.463-28.563c5.12-2.047,10.931,0.445,12.977,5.566l24.191,60.525
											C217.989,413.676,215.497,419.486,210.377,421.533z"/>
									</g>
								</g>
							</g>
							<g style="opacity:0.3;">
								<g>
									<path d="M168.567,384.314c-2.544-6.365-9.971-9.319-16.25-6.275c-5.187,2.514-7.839,8.519-6.196,14.044
										c1.694,5.7,7.122,8.984,12.62,8.418l5.393,13.494c0.665,1.663,2.552,2.473,4.216,1.808l0,0
										c1.663-0.665,2.473-2.552,1.808-4.215l-5.394-13.494C168.861,394.929,170.584,389.36,168.567,384.314z"/>
								</g>
							</g>
						</g>
					</g>
				</g>
				<g>
					<g>
						<path style="fill:#263238;" d="M216.737,410.379c-0.134,0.053-5.687-13.697-12.401-30.706
							c-6.717-17.016-12.051-30.848-11.918-30.901c0.134-0.053,5.685,13.694,12.402,30.709
							C211.535,396.491,216.871,410.326,216.737,410.379z"/>
					</g>
				</g>
				<g>
					<g>
						<path style="fill:#263238;" d="M167.728,399.229c-0.093-0.084,1.427-1.191,2.824-3.747c0.698-1.266,1.312-2.9,1.597-4.787
							c0.289-1.882,0.201-4.022-0.454-6.117c-0.687-2.085-1.862-3.878-3.193-5.239c-1.331-1.369-2.782-2.34-4.086-2.963
							c-2.624-1.265-4.504-1.28-4.477-1.403c0.001-0.027,0.459-0.035,1.279,0.075c0.819,0.106,1.996,0.393,3.355,0.994
							c1.359,0.596,2.877,1.564,4.272,2.96c1.394,1.389,2.63,3.242,3.346,5.416c0.683,2.184,0.757,4.41,0.432,6.35
							c-0.321,1.947-0.993,3.618-1.75,4.894c-0.755,1.28-1.545,2.198-2.149,2.762C168.122,398.991,167.745,399.25,167.728,399.229z"
							/>
					</g>
				</g>
				<g>
					<g>
						<path style="fill:#FFFFFF;" d="M168.199,349.47c0.055,0.133-11.95,5.244-26.812,11.414
							c-14.867,6.172-26.959,11.066-27.014,10.934c-0.055-0.133,11.948-5.242,26.814-11.415
							C156.049,354.233,168.144,349.337,168.199,349.47z"/>
					</g>
				</g>
				<g>
					<g>
						<path style="fill:#FFFFFF;" d="M148.506,399.226c-0.02,0.025-0.289-0.142-0.732-0.506c-0.444-0.362-1.044-0.941-1.684-1.747
							c-1.281-1.588-2.648-4.24-2.855-7.416c-0.202-3.177,0.813-5.983,1.88-7.722c0.531-0.881,1.052-1.533,1.446-1.949
							c0.393-0.417,0.639-0.617,0.661-0.595c0.075,0.064-0.83,0.96-1.787,2.725c-0.958,1.741-1.874,4.458-1.68,7.507
							c0.199,3.048,1.456,5.624,2.63,7.228C147.559,398.38,148.572,399.153,148.506,399.226z"/>
					</g>
				</g>
				<g>
					<g>
						<path style="fill:#FFFFFF;" d="M154.96,402.714c-0.024,0.142-0.782,0.134-1.694-0.018c-0.912-0.152-1.632-0.39-1.609-0.532
							c0.024-0.142,0.782-0.134,1.694,0.018C154.264,402.334,154.984,402.572,154.96,402.714z"/>
					</g>
				</g>
				<g>
					<g>
						<path style="fill:#FFFFFF;" d="M122.701,302.963c0.02,0.041-0.625,0.364-1.751,1.005c-1.128,0.638-2.714,1.65-4.513,3.104
							c-3.589,2.863-7.949,7.865-10.256,14.563c-2.299,6.703-1.934,13.329-0.864,17.793c0.524,2.253,1.153,4.026,1.651,5.222
							c0.494,1.198,0.804,1.849,0.763,1.869c-0.016,0.008-0.11-0.146-0.273-0.447c-0.155-0.305-0.418-0.742-0.676-1.341
							c-0.558-1.179-1.247-2.949-1.823-5.217c-1.175-4.492-1.61-11.227,0.73-18.048c2.347-6.816,6.831-11.861,10.518-14.681
							c1.849-1.434,3.48-2.408,4.645-2.995c0.572-0.314,1.047-0.497,1.358-0.643C122.525,303.011,122.694,302.947,122.701,302.963z"
							/>
					</g>
				</g>
				<g>
					<g>
						<path style="fill:#FFFFFF;" d="M110.811,356.528c-0.134,0.052-0.744-1.196-1.362-2.788c-0.618-1.592-1.011-2.925-0.877-2.977
							c0.134-0.052,0.744,1.196,1.362,2.788C110.552,355.143,110.945,356.476,110.811,356.528z"/>
					</g>
				</g>
			</g>
			<g style="opacity:0.3;">
				<g>
					<path d="M185.633,297.439c-4.49,12.855-2.277,27.299,2.728,39.963C188.36,337.402,185.748,310.889,185.633,297.439z"/>
				</g>
			</g>
			<g style="opacity:0.3;">
				<g>
					<path d="M264.249,391.247c4.947-11.178,9.914-22.393,16.287-32.823c6.374-10.43,13.965-20.348,23.752-27.671
						c2.643-1.977,7.574-5.727,7.574-5.727s-1.318-2.496-2.618-4.565c-1.508-2.399-3.994-6.563-5.325-8.612l5.85,1.17
						c0,0-4.014-9.219-3.893-8.6c0,0-5.114,1.317-7.924,1.628c2.047,4.907,4.229,9.331,6.276,14.238
						c-11.022,8.744-20.018,19.751-27.534,31.393s-12.766,25.154-12.496,39.008"/>
				</g>
			</g>
		</g>
		<g>
			<g>
				<path style="fill:#E0E0E0;" d="M285.156,215.756c0.138-0.101,0.445-0.008,0.791,0.395c0.339,0.396,0.688,1.128,0.687,2.117
					c-0.004,0.491-0.096,1.045-0.346,1.605c-0.251,0.558-0.67,1.121-1.224,1.543c-1.09,0.849-2.726,1.269-4.34,0.679
					c-1.601-0.626-2.549-2.024-2.805-3.382c-0.137-0.683-0.077-1.382,0.104-1.967c0.184-0.586,0.481-1.062,0.803-1.433
					c0.654-0.743,1.4-1.059,1.916-1.132c0.525-0.073,0.817,0.06,0.854,0.228c0.087,0.36-0.778,0.826-1.248,1.941
					c-0.234,0.554-0.32,1.187-0.095,1.808c0.208,0.63,0.752,1.264,1.392,1.502c0.637,0.245,1.465,0.13,2.037-0.204
					c0.58-0.317,0.934-0.848,1.126-1.418C285.193,216.89,284.853,215.968,285.156,215.756z"/>
			</g>
		</g>
		<g>
			<g>
				<path style="fill:#B5715A;" d="M104.573,429.484c0,0,3.41,10.983,5.17,13.206c1.76,2.223,13.528,3.4,13.528,3.4L104.573,429.484
					z"/>
			</g>
			<g>
				<g>
					<path style="fill:#B5715A;" d="M118.67,412.02l6.529,5.242l19.381,14.942c0,0-0.118,3.592-4.48,2.771
						c-3.535-0.666-11.388-4.999-11.388-4.999s9.222,8.663,9.541,12.712v0.736c0,0.893-0.344,1.752-0.962,2.398l0,0l-10.766-7.196
						c0,0,2.305,4.062,4.575,8.272c0.726,1.348,0.372,4.089-0.739,5.143l0,0l0,0l-23.989-20.129l-0.157-14.994L118.67,412.02"/>
				</g>
				<g>
					<g>
						<path style="fill:#884C3B;" d="M116.122,421.398c0.009-0.035,0.325,0.038,0.898,0.203c0.278,0.102,0.607,0.253,0.994,0.42
							c0.374,0.189,0.795,0.417,1.253,0.68c1.818,1.076,4.136,2.832,6.687,4.747c2.547,1.926,4.93,3.55,6.759,4.543
							c1.824,1.003,3.066,1.378,3.039,1.47c-0.01,0.034-0.326-0.039-0.894-0.203c-0.288-0.073-0.629-0.193-1.013-0.36
							c-0.388-0.159-0.836-0.332-1.301-0.58c-1.901-0.923-4.349-2.521-6.902-4.452c-2.56-1.922-4.827-3.712-6.57-4.852
							c-0.426-0.262-0.823-0.506-1.194-0.734c-0.338-0.177-0.647-0.339-0.936-0.491C116.41,421.572,116.113,421.432,116.122,421.398
							z"/>
					</g>
				</g>
				<g>
					<g>
						<path style="fill:#884C3B;" d="M113.922,428.713c0.041-0.057,0.832,0.427,2.059,1.284c1.227,0.857,2.885,2.093,4.657,3.534
							c1.772,1.442,3.32,2.813,4.409,3.84c1.089,1.027,1.724,1.702,1.676,1.754c-0.05,0.055-0.772-0.525-1.92-1.478
							c-1.299-1.073-2.817-2.327-4.494-3.712c-1.697-1.359-3.233-2.59-4.549-3.643C114.593,429.362,113.879,428.773,113.922,428.713
							z"/>
					</g>
				</g>
				<g>
					<g>
						<g>
							<g>
								<path style="fill:#B5715A;" d="M81.545,410.379c-0.168,0.191,0.086,0.554,0.247,0.891
									c2.61,5.453,24.996,20.935,24.996,20.935l12.255-20.818c0,0,8.87,4.29,12.508,3.3c2.983-0.812,8.638-1.427,6.034-6.682
									c0,0-12.505-2.305-16.76-4.13c-4.255-1.825-6.903-2.781-6.903-2.781s-8.041,0.252-14.446-1.429
									C99.476,399.665,91.924,398.607,81.545,410.379z"/>
							</g>
						</g>
					</g>
				</g>
			</g>
			<g>
				<g>
					<path style="fill:#884C3B;" d="M129.755,451.534c-0.05,0.056-1.119-0.806-2.839-2.206c-1.832-1.486-4.158-3.373-6.731-5.46
						c-2.629-2.135-4.981-4.109-6.642-5.584c-0.831-0.738-1.494-1.344-1.94-1.777c-0.448-0.431-0.684-0.683-0.66-0.71
						c0.05-0.056,1.118,0.806,2.839,2.206c1.832,1.486,4.159,3.373,6.732,5.461c2.629,2.134,4.98,4.108,6.641,5.583
						c0.831,0.738,1.494,1.344,1.941,1.777C129.542,451.256,129.778,451.507,129.755,451.534z"/>
				</g>
			</g>
		</g>
		<g>
			<g>
				<g>
					<path style="fill:#E0E0E0;" d="M339.619,229.678l7.711,1.213l0.927-5.889l-2.998-0.472l0.421-2.677l-2.784-0.438l0.371-2.356
						l3.212,0.505l0.32-2.035l-5.14-0.809c0.041-0.264,0.082-0.523,0.121-0.776l-0.122,0.776h0c0.041-0.258,0.081-0.517,0.122-0.776
						c0.149-0.949-0.731-1.945-1.672-1.983c-1.051-0.043-1.823,0.655-1.983,1.672c-1.499,9.523-2.997,19.045-4.495,28.568
						c-0.4,2.54-0.799,5.08-1.199,7.62c-4.719,0.131-8.836,3.61-9.596,8.438c-0.752,4.78,2.032,9.315,6.407,10.931
						c0.609,0.225,1.249,0.394,1.915,0.498c2.637,0.415,5.279-0.222,7.438-1.793c2.158-1.572,3.576-3.89,3.991-6.528
						c0.76-4.828-2.092-9.403-6.54-10.977c1.154-7.333,2.308-14.666,3.462-21.999c0,0,0,0,0,0.001L339.619,229.678z
						 M340.049,262.968c-0.309,1.96-1.362,3.683-2.966,4.852c-1.605,1.168-3.568,1.641-5.528,1.333
						c-4.05-0.638-6.821-4.447-6.185-8.494c0.637-4.047,4.447-6.821,8.494-6.185l0,0
						C337.913,255.111,340.686,258.921,340.049,262.968z"/>
				</g>
				<g>
					<g>
						<path style="fill:none;" d="M339.619,229.678l7.711,1.213l0.927-5.889l-2.998-0.472l0.421-2.677l-2.784-0.438l0.371-2.356
							l3.212,0.505l0.32-2.035l-5.14-0.809c0.041-0.264,0.082-0.523,0.121-0.776l-0.122,0.776h0
							c0.041-0.258,0.081-0.517,0.122-0.776c0.149-0.949-0.731-1.945-1.672-1.983c-1.051-0.043-1.823,0.655-1.983,1.672
							c-1.499,9.523-2.997,19.045-4.495,28.568c-0.4,2.54-0.799,5.08-1.199,7.62c-4.719,0.131-8.836,3.61-9.596,8.438
							c-0.752,4.78,2.032,9.315,6.407,10.931c0.609,0.225,1.249,0.394,1.915,0.498c2.637,0.415,5.279-0.222,7.438-1.793
							c2.158-1.572,3.576-3.89,3.991-6.528c0.76-4.828-2.092-9.403-6.54-10.977c1.154-7.333,2.308-14.666,3.462-21.999
							c0,0,0,0,0,0.001L339.619,229.678z M340.049,262.968c-0.309,1.96-1.362,3.683-2.966,4.852
							c-1.605,1.168-3.568,1.641-5.528,1.333c-4.05-0.638-6.821-4.447-6.185-8.494c0.637-4.047,4.447-6.821,8.494-6.185l0,0
							C337.913,255.111,340.686,258.921,340.049,262.968z"/>
					</g>
					<g>
						<g>
							<path style="fill:#263238;" d="M340.049,262.968c-0.098,0.003,0.236-1.196-0.325-3.141c-0.299-0.949-0.836-2.083-1.83-3.06
								c-0.957-1-2.387-1.798-4.064-2.072l0.126-0.428l0,0l1.552,0.678l-1.679-0.249c-1.622-0.241-3.499,0.079-5.077,1.142
								c-1.579,1.038-2.811,2.814-3.125,4.863c-0.227,1.539,0.03,3.107,0.72,4.405c0.662,1.31,1.721,2.35,2.899,2.999
								c1.175,0.669,2.482,0.939,3.683,0.92c1.207-0.025,2.315-0.351,3.222-0.836c1.841-0.974,2.832-2.456,3.303-3.501
								C339.926,263.619,339.996,262.956,340.049,262.968c0.016,0.002,0.011,0.167-0.039,0.477c-0.048,0.31-0.155,0.763-0.37,1.322
								c-0.426,1.098-1.404,2.68-3.314,3.746c-0.941,0.53-2.107,0.897-3.385,0.943c-1.272,0.04-2.665-0.23-3.927-0.931
								c-1.265-0.681-2.404-1.785-3.12-3.184c-0.744-1.386-1.026-3.071-0.781-4.72c0.336-2.198,1.667-4.103,3.362-5.201
								c1.695-1.127,3.706-1.448,5.425-1.168l-0.126,0.428l0,0l-1.624-0.735l1.751,0.307c1.778,0.312,3.277,1.187,4.259,2.259
								c1.021,1.05,1.547,2.251,1.819,3.245c0.265,1.008,0.258,1.833,0.221,2.382C340.134,262.686,340.069,262.972,340.049,262.968z
								"/>
						</g>
					</g>
					<g>
						<g>
							<path style="fill:#263238;" d="M339.618,229.678c0,0-0.017,0.238-0.08,0.719l-0.065-0.012l0.001-0.003l0.064,0.015
								c-0.284,2.173-1.49,10.167-3.315,22.022l-0.119-0.199c1.747,0.633,3.449,1.761,4.687,3.403
								c1.249,1.619,2.064,3.706,2.125,5.933c0.054,2.217-0.615,4.549-2.064,6.446c-1.436,1.888-3.6,3.335-6.074,3.839
								c-2.461,0.515-5.194,0.096-7.44-1.311c-2.253-1.378-3.992-3.704-4.607-6.394c-0.66-2.677-0.12-5.663,1.46-8.031
								c1.585-2.364,4.22-4.06,7.129-4.446c0.367-0.062,0.74-0.064,1.1-0.097l-0.25,0.22c1.276-8.081,2.506-15.87,3.659-23.172
								c0.579-3.649,1.139-7.177,1.675-10.558c0.135-0.847,0.269-1.684,0.402-2.512c0.129-0.911,0.924-1.728,1.854-1.789
								c0.942-0.133,1.823,0.521,2.131,1.344c0.188,0.415,0.111,0.927,0.04,1.28l-0.046,0.29l-0.012,0.073l-0.001,0.009
								c-0.192-0.027,0.428,0.074-0.431-0.059l0.003-0.018l0.006-0.036l0.023-0.145l0.092-0.576l0.427,0.067
								c-0.043,0.272-0.083,0.524-0.123,0.775l-0.178-0.245c1.775,0.284,3.488,0.558,5.138,0.822l0.199,0.032l-0.032,0.198
								c-0.116,0.722-0.221,1.383-0.326,2.033l-0.031,0.194l-0.193-0.031c-1.14-0.183-2.19-0.351-3.211-0.515l0.213-0.155
								c-0.136,0.849-0.259,1.61-0.378,2.354l-0.148-0.204c1.01,0.163,1.91,0.307,2.782,0.448l0.167,0.027l-0.027,0.166
								c-0.159,0.984-0.298,1.844-0.432,2.675l-0.131-0.18c1.116,0.181,2.077,0.336,2.996,0.485l0.143,0.023l-0.023,0.142
								c-0.366,2.24-0.685,4.195-0.96,5.884l-0.018,0.11L347.312,231c-2.471-0.416-4.378-0.738-5.696-0.96
								c-0.634-0.111-1.125-0.197-1.482-0.26C339.798,229.72,339.618,229.678,339.618,229.678c-0.006-0.008,0.157,0.011,0.483,0.054
								c0.354,0.049,0.839,0.117,1.466,0.204c1.337,0.196,3.272,0.479,5.779,0.846l-0.126,0.092c0.256-1.692,0.553-3.65,0.893-5.894
								l0.12,0.165c-0.92-0.141-1.882-0.288-3-0.459l-0.155-0.024l0.024-0.157c0.128-0.832,0.26-1.693,0.411-2.678l0.14,0.192
								c-0.873-0.134-1.774-0.273-2.785-0.428l-0.176-0.027l0.027-0.177c0.115-0.745,0.232-1.507,0.363-2.357l0.028-0.183
								l0.185,0.028c1.021,0.158,2.072,0.32,3.214,0.496l-0.224,0.163c0.101-0.651,0.203-1.313,0.315-2.035l0.167,0.23
								c-1.651-0.256-3.366-0.521-5.142-0.796l-0.211-0.033l0.033-0.212c0.039-0.251,0.078-0.504,0.12-0.776l0.427,0.067
								l-0.089,0.576l-0.022,0.145l-0.006,0.036l-0.003,0.018c-0.859-0.137-0.237-0.043-0.429-0.076l0.001-0.009l0.011-0.072
								l0.045-0.291c0.073-0.411,0.122-0.72-0.021-1.054c-0.252-0.652-0.95-1.169-1.669-1.053c-0.736,0.058-1.335,0.67-1.45,1.422
								c-0.129,0.825-0.26,1.659-0.392,2.503c-0.528,3.383-1.078,6.911-1.648,10.562c-1.145,7.303-2.367,15.093-3.635,23.176
								l-0.031,0.199l-0.219,0.021c-0.342,0.033-0.696,0.033-1.044,0.092c-2.759,0.366-5.263,1.977-6.77,4.22
								c-1.5,2.246-2.018,5.083-1.394,7.625c0.581,2.557,2.232,4.773,4.372,6.088c2.132,1.343,4.738,1.749,7.083,1.265
								c2.357-0.473,4.431-1.849,5.808-3.647c1.389-1.805,2.039-4.035,1.998-6.159c-0.05-2.132-0.821-4.139-2.013-5.702
								c-1.182-1.586-2.813-2.68-4.493-3.303l-0.142-0.053l0.024-0.147c1.903-11.842,3.211-19.821,3.608-21.976l0.064,0.015
								l0.001-0.002l-0.065-0.012C339.568,229.874,339.618,229.678,339.618,229.678z"/>
						</g>
					</g>
				</g>
			</g>
			<g>
				<path style="fill:#B5715A;" d="M322.635,258.655l12.342-3.25l6.426,0.829c1.184,0.153,2.205,0.904,2.704,1.989l4.161,9.055
					c0,0,6.025,4.962,5.316,7.974s-6.269,29.915-6.269,29.915l-16.56-0.499c0,0-4.637-5.316-4.992-12.581
					c-0.184-3.778,1.254-6.09,0.901-8.089c-0.242-1.369,0.607-3.81,0.983-5.687l0.503-1.818l-1.103,0.523
					c-2.029,0.962-4.496-0.279-4.773-2.507c-0.012-0.096-0.02-0.193-0.025-0.291l0,0c-0.106-2.154,0.713-4.25,2.252-5.761
					l6.254-6.141C330.755,262.316,323.876,266.297,322.635,258.655z"/>
			</g>
			<g>
				<g>
					<g>
						<path style="fill:#884C3B;" d="M343.665,273.69c-0.007,0.035-0.413-0.013-1.142-0.132c-0.836-0.149-1.862-0.333-3.074-0.549
							c-1.334-0.258-2.866-0.555-4.546-0.88c-0.856-0.157-1.754-0.388-2.661-0.465c-0.901-0.083-1.866,0.086-2.474,0.786
							c-0.612,0.692-0.85,1.656-1.051,2.562c-0.197,0.924-0.386,1.817-0.569,2.674c-0.333,1.707-0.804,3.235-0.806,4.506
							c-0.032,1.292,0.616,2.213,1.19,2.612c0.585,0.413,1.031,0.37,1.02,0.426c0,0.013-0.103,0.039-0.303,0.023
							c-0.198-0.014-0.497-0.081-0.829-0.28c-0.658-0.367-1.435-1.38-1.447-2.773c-0.04-1.381,0.4-2.901,0.704-4.612
							c0.173-0.859,0.353-1.755,0.539-2.682c0.203-0.923,0.429-1.963,1.163-2.804c0.749-0.866,1.951-1.05,2.902-0.946
							c0.984,0.093,1.863,0.335,2.717,0.504c1.671,0.366,3.196,0.699,4.523,0.989c1.199,0.28,2.214,0.518,3.041,0.711
							C343.28,273.539,343.672,273.655,343.665,273.69z"/>
					</g>
				</g>
				<g>
					<g>
						<path style="fill:#884C3B;" d="M337.225,287.366c0.024-0.022,0.04,0.516-0.624,0.997c-0.319,0.232-0.808,0.397-1.367,0.385
							c-0.561-0.004-1.17-0.152-1.819-0.349c-1.27-0.406-2.901-1.087-3.946-2.683c-1.042-1.612-0.925-3.884-0.079-5.785
							c0.428-0.959,0.877-1.858,1.536-2.651c0.334-0.385,0.757-0.721,1.252-0.889c0.493-0.169,1.002-0.168,1.46-0.104
							c1.803,0.347,3.288,0.926,4.542,1.447c1.243,0.533,2.204,1.059,2.85,1.447c0.646,0.39,0.981,0.64,0.964,0.668
							c-0.045,0.079-1.465-0.8-3.953-1.775c-1.236-0.468-2.773-1.013-4.464-1.312c-0.418-0.052-0.846-0.041-1.235,0.097
							c-0.39,0.136-0.737,0.41-1.032,0.754c-0.577,0.698-1.039,1.61-1.441,2.518c-0.805,1.815-0.9,3.882,0.007,5.329
							c0.909,1.447,2.431,2.153,3.652,2.586c0.626,0.215,1.206,0.379,1.714,0.408c0.511,0.036,0.941-0.081,1.248-0.265
							C337.119,287.817,337.18,287.34,337.225,287.366z"/>
					</g>
				</g>
				<g>
					<g>
						<path style="fill:#884C3B;" d="M337.068,285.57c0.018,0.063-0.289,0.23-0.843,0.293c-0.547,0.066-1.349-0.009-2.118-0.406
							c-0.77-0.397-1.295-1.008-1.558-1.492c-0.269-0.488-0.311-0.835-0.249-0.857c0.133-0.071,0.671,1.182,2.046,1.886
							C335.715,285.707,337.048,285.42,337.068,285.57z"/>
					</g>
				</g>
				<g>
					<g>
						<path style="fill:#884C3B;" d="M338.273,288.92c-0.079,0.113-0.859-0.35-1.424-1.282c-0.571-0.929-0.625-1.834-0.488-1.853
							c0.147-0.031,0.414,0.743,0.933,1.582C337.802,288.211,338.368,288.804,338.273,288.92z"/>
					</g>
				</g>
				<g>
					<g>
						<path style="fill:#884C3B;" d="M337.936,298.086c-0.109,0.068-1.062-1.902-0.964-4.531c0.073-2.631,1.152-4.535,1.257-4.46
							c0.15,0.059-0.67,1.971-0.736,4.476C337.396,296.076,338.09,298.038,337.936,298.086z"/>
					</g>
				</g>
				<g>
					<g>
						<path style="fill:#884C3B;" d="M337.629,289.897c0.057,0.152-2.059,0.695-3.893,2.52c-1.867,1.792-2.457,3.895-2.609,3.835
							c-0.059-0.015-0.001-0.559,0.325-1.377c0.321-0.815,0.955-1.884,1.92-2.83c0.968-0.943,2.051-1.552,2.873-1.855
							C337.069,289.883,337.615,289.837,337.629,289.897z"/>
					</g>
				</g>
				<g>
					<g>
						<path style="fill:#884C3B;" d="M332.555,269.308c0.141,0.007,0.228,0.509,0.059,1.093c-0.167,0.585-0.507,0.965-0.63,0.896
							c-0.128-0.069-0.019-0.516,0.129-1.039C332.265,269.735,332.409,269.299,332.555,269.308z"/>
					</g>
				</g>
				<g>
					<g>
						<path style="fill:#884C3B;" d="M347.246,269.487c-0.038,0.061-0.979-0.445-2.47-1.313c-1.491-0.867-3.533-2.098-5.769-3.482
							c-1.115-0.689-2.192-1.305-3.238-1.69c-1.041-0.398-2.042-0.537-2.879-0.503c-1.698,0.07-2.571,0.81-2.613,0.721
							c-0.018-0.022,0.167-0.228,0.593-0.48c0.424-0.249,1.107-0.527,1.996-0.608c0.882-0.085,1.965,0.026,3.066,0.419
							c1.107,0.38,2.227,1.005,3.348,1.698c2.24,1.385,4.248,2.664,5.69,3.612C346.411,268.809,347.284,269.426,347.246,269.487z"/>
					</g>
				</g>
			</g>
			<g>
				<g>
					<path style="fill:#263238;" d="M339.612,230.022c-0.142-0.021,0.189-3.049,0.739-6.761c0.551-3.714,1.112-6.707,1.255-6.686
						c0.142,0.021-0.189,3.048-0.74,6.762C340.315,227.05,339.754,230.043,339.612,230.022z"/>
				</g>
			</g>
			<g style="opacity:0.3;">
				<g>
					<path d="M341.605,216.899c1.214,4.149,0.222,8.821-1.924,12.443C340.399,225.695,341.124,220.752,341.605,216.899"/>
				</g>
			</g>
		</g>
	</g>
</g>
<g id="Plant">
	<g>
		<g>
			<g>
				<path style="fill:#FF725E;" d="M452.341,395.207c-4.63-4.456-11.588-6.347-17.837-4.847c-6.249,1.5-11.59,6.343-13.692,12.416
					l2.281,8.822c0.867-3.005,2.724-5.911,5.597-7.149c2.988-1.288,6.449-0.554,9.507,0.556c3.058,1.111,6.061,2.598,9.308,2.798
					c3.247,0.2,6.913-1.34,7.885-4.445C456.305,400.441,454.545,397.328,452.341,395.207z"/>
			</g>
			<g style="opacity:0.3;">
				<path d="M452.341,395.207c-4.63-4.456-11.588-6.347-17.837-4.847c-6.249,1.5-11.59,6.343-13.692,12.416l2.281,8.822
					c0.867-3.005,2.724-5.911,5.597-7.149c2.988-1.288,6.449-0.554,9.507,0.556c3.058,1.111,6.061,2.598,9.308,2.798
					c3.247,0.2,6.913-1.34,7.885-4.445C456.305,400.441,454.545,397.328,452.341,395.207z"/>
			</g>
		</g>
		<g>
			<g>
				<g>
					<g>
						<g>
							<path style="fill:#FF725E;" d="M397.365,424.643c-4.765-4.526-4.527-12.405-2.15-18.532
								c2.377-6.127,7.564-10.831,13.358-13.932c11.232-6.01,25.272-6.465,36.869-1.195c-5.698,0.189-11.207,3.423-14.149,8.308
								c-2.611,4.336-3.191,9.599-5.348,14.178c-2.403,5.101-6.814,9.224-12.065,11.277
								C408.627,426.8,402.59,426.762,397.365,424.643"/>
						</g>
					</g>
				</g>
			</g>
		</g>
		<g>
			<g>
				<g>
					<g>
						<g>
							<path style="fill:#FF725E;" d="M395.074,397.451c-5.275-6.227-5.977-16.222-5.2-24.346c0.777-8.124,2.66-16.299,1.379-24.359
								c-0.759-4.775-2.611-9.334-3.237-14.127c-0.626-4.794,0.261-10.215,3.976-13.31c4.27-3.557,10.992-2.718,15.434,0.622
								c4.441,3.34,7.015,8.585,8.895,13.814c4.131,11.488,5.648,24.227,2.254,35.953c-3.394,11.727-11.357,22.212-23.041,25.752"/>
						</g>
					</g>
				</g>
			</g>
		</g>
		<g>
			<g>
				<g>
					<g>
						<g>
							<g>
								<path style="fill:#263238;" d="M392.543,448.539c-0.015,0-0.021-0.247-0.02-0.718c0.006-0.47,0-1.165,0.039-2.057
									c0.067-1.786,0.239-4.369,0.639-7.542c0.402-3.171,1.03-6.932,2.027-11.043c0.983-4.12,2.663-8.512,5.04-12.786
									c2.385-4.276,5.293-7.967,8.235-11.009c2.95-3.044,5.967-5.413,8.633-7.18c1.318-0.911,2.592-1.603,3.689-2.243
									c1.125-0.59,2.107-1.075,2.912-1.464c0.796-0.335,1.428-0.6,1.898-0.798c0.435-0.178,0.667-0.264,0.672-0.25
									c0.006,0.014-0.214,0.128-0.638,0.331c-0.46,0.215-1.08,0.505-1.859,0.87c-0.791,0.411-1.757,0.916-2.866,1.524
									c-1.08,0.658-2.337,1.364-3.636,2.286c-2.628,1.789-5.604,4.166-8.516,7.203c-2.904,3.034-5.779,6.703-8.144,10.943
									c-4.85,8.484-6.178,17.405-7.141,23.657c-0.438,3.157-0.656,5.73-0.776,7.51c-0.051,0.86-0.091,1.543-0.121,2.051
									C392.581,448.293,392.558,448.539,392.543,448.539z"/>
							</g>
						</g>
					</g>
				</g>
			</g>
		</g>
		<g>
			<g>
				<g>
					<path style="fill:#FF725E;" d="M347.044,372.886c-9.76,5.889-9.729,11.249-8.099,16.308c1.63,5.059,7.62,8.573,12.586,6.679
						c2.807-1.071,4.841-3.511,6.578-5.963c1.737-2.451,3.369-5.076,5.803-6.837c1.661-1.202,3.833-1.896,5.822-1.661
						L347.044,372.886z"/>
				</g>
			</g>
			<g style="opacity:0.3;">
				<path d="M347.044,372.886c-9.76,5.889-9.729,11.249-8.099,16.308c1.63,5.059,7.62,8.573,12.586,6.679
					c2.807-1.071,4.841-3.511,6.578-5.963c1.737-2.451,3.369-5.076,5.803-6.837c1.661-1.202,3.833-1.896,5.822-1.661
					L347.044,372.886z"/>
			</g>
			<g>
				<g>
					<g>
						<g>
							<g>
								<path style="fill:#FF725E;" d="M339.581,379.611c2.552-3.526,8.856-4.547,12.837-2.788c3.981,1.759,6.897,5.249,9.507,8.732
									c2.61,3.483,5.151,7.161,8.766,9.584c3.615,2.423,8.666,3.301,12.269,0.86c2.367-1.604,3.738-4.391,4.168-7.217
									c0.429-2.826,0.015-5.712-0.573-8.51c-0.861-4.093-2.267-8.368-5.543-10.969c-3.651-2.898-8.716-3.035-13.375-2.883
									c-5.346,0.175-10.771,0.576-15.789,2.429C346.831,370.703,341.711,374.705,339.581,379.611"/>
							</g>
						</g>
					</g>
				</g>
			</g>
			<g>
				<g>
					<g>
						<g>
							<g>
								<g>
									<path style="fill:#263238;" d="M384.431,440.723c-0.007,0-0.016-0.072-0.026-0.214c-0.009-0.168-0.02-0.374-0.033-0.63
										c-0.021-0.589-0.049-1.398-0.084-2.422c-0.061-2.14-0.149-5.174-0.256-8.909c-0.118-3.76-0.272-8.237-0.543-13.203
										c-0.278-4.963-0.646-10.423-1.4-16.104c-0.383-2.837-0.831-5.611-1.617-8.179c-0.791-2.57-1.845-4.964-2.991-7.156
										c-1.158-2.188-2.427-4.18-3.773-5.923c-1.353-1.738-2.75-3.247-4.12-4.523c-2.769-2.531-5.419-4.077-7.305-4.98
										c-0.477-0.218-0.892-0.432-1.266-0.584c-0.368-0.143-0.685-0.266-0.953-0.37c-0.237-0.096-0.429-0.173-0.584-0.236
										c-0.131-0.056-0.197-0.088-0.195-0.095c0.002-0.007,0.073,0.011,0.209,0.052c0.16,0.052,0.357,0.116,0.6,0.196
										c0.273,0.093,0.597,0.204,0.972,0.332c0.381,0.14,0.804,0.343,1.289,0.551c1.92,0.861,4.619,2.38,7.441,4.906
										c1.397,1.274,2.82,2.785,4.199,4.53c1.372,1.75,2.665,3.753,3.843,5.956c1.167,2.209,2.236,4.615,3.044,7.217
										c0.805,2.613,1.256,5.398,1.641,8.247c0.756,5.704,1.112,11.171,1.369,16.141c0.249,4.972,0.371,9.453,0.45,13.216
										c0.077,3.763,0.107,6.809,0.117,8.913c0.001,1.025,0.002,1.835,0.002,2.424c-0.004,0.256-0.008,0.463-0.01,0.63
										C384.445,440.65,384.439,440.723,384.431,440.723z"/>
								</g>
							</g>
						</g>
					</g>
				</g>
			</g>
		</g>
		<g>
			<g>
				<g>
					<g>
						<g>
							<g>
								<path style="fill:#263238;" d="M387.943,445.133c0,0-0.546-1.449-1.069-4.191c-0.508-2.738-0.891-6.798-0.447-11.775
									c0.417-4.976,1.69-10.816,3.719-17.084c2.003-6.279,4.722-12.994,7.045-20.211c1.152-3.612,2.131-7.185,2.802-10.693
									c0.68-3.507,1.111-6.931,1.384-10.203c0.547-6.548,0.47-12.48,0.311-17.448c-0.168-4.971-0.433-8.989-0.598-11.767
									c-0.081-1.368-0.144-2.44-0.189-3.199c-0.016-0.347-0.029-0.622-0.039-0.833c-0.006-0.188-0.006-0.284,0.001-0.285
									c0.008,0,0.022,0.095,0.043,0.282c0.021,0.21,0.048,0.484,0.082,0.83c0.064,0.758,0.155,1.828,0.27,3.194
									c0.217,2.775,0.528,6.792,0.737,11.767c0.199,4.973,0.308,10.918-0.218,17.492c-0.264,3.285-0.687,6.726-1.366,10.252
									c-0.669,3.529-1.651,7.122-2.806,10.744c-2.331,7.241-5.06,13.948-7.078,20.202c-2.043,6.242-3.34,12.043-3.794,16.989
									c-0.48,4.946-0.147,8.982,0.307,11.718c0.24,1.367,0.459,2.425,0.652,3.131c0.082,0.337,0.147,0.605,0.197,0.809
									C387.932,445.036,387.95,445.131,387.943,445.133z"/>
							</g>
						</g>
					</g>
				</g>
			</g>
		</g>
		<g>
			<g>
				<g>
					<g>
						<g>
							<polygon style="fill:#455A64;" points="418.416,442.666 360.21,442.666 358.881,431.463 418.416,431.463 							"/>
						</g>
					</g>
				</g>
			</g>
		</g>
		<g>
			<g>
				<g>
					<g>
						<g>
							<polygon style="fill:#455A64;" points="366.456,441.39 373.733,474.999 405.361,474.999 412.17,441.39 							"/>
						</g>
					</g>
				</g>
			</g>
		</g>
		<g>
			<g>
				<g>
					<g>
						<g>
							<g>
								<path style="fill:#455A64;" d="M418.415,442.666c-0.001,0.153-12.798,0.241-28.58,0.197
									c-15.788-0.044-28.581-0.204-28.581-0.357c0-0.153,12.795-0.241,28.582-0.197
									C405.619,442.353,418.415,442.513,418.415,442.666z"/>
							</g>
						</g>
					</g>
				</g>
			</g>
		</g>
		<g>
			<g>
				<g>
					<g>
						<g>
							<g>
								<path style="fill:#FFFFFF;" d="M409.002,457.026c-0.071,0.105-1.779-1.61-5.264-3.102c-1.73-0.735-3.912-1.388-6.389-1.536
									c-2.479-0.174-5.181,0.459-7.908,1.394c-2.743,0.92-5.288,2.035-7.81,2.551c-2.522,0.457-4.84,0.317-6.733,0.011
									c-1.895-0.329-3.373-0.87-4.325-1.369c-0.47-0.262-0.83-0.472-1.05-0.652c-0.227-0.169-0.339-0.264-0.328-0.28
									c0.031-0.045,0.512,0.299,1.471,0.737c0.962,0.43,2.426,0.902,4.292,1.176c1.861,0.251,4.14,0.345,6.575-0.125
									c2.415-0.519,4.971-1.647,7.73-2.574c2.748-0.943,5.548-1.587,8.117-1.379c2.554,0.181,4.773,0.892,6.516,1.687
									c1.756,0.786,3.039,1.684,3.883,2.338c0.422,0.331,0.733,0.605,0.932,0.805
									C408.915,456.903,409.015,457.012,409.002,457.026z"/>
							</g>
						</g>
					</g>
				</g>
			</g>
		</g>
		<g>
			<g>
				<g>
					<g>
						<g>
							<g>
								<path style="fill:#263238;" d="M418.93,442.714c0,0.153-13.093,0.277-29.241,0.277c-16.154,0-29.244-0.124-29.244-0.277
									c0-0.153,13.09-0.277,29.244-0.277C405.837,442.437,418.93,442.561,418.93,442.714z"/>
							</g>
						</g>
					</g>
				</g>
			</g>
		</g>
	</g>
</g>
</svg>
