<svg width="170" height="30" viewBox="0 0 170 30" fill="none" xmlns="http://www.w3.org/2000/svg">
<path d="M10.376 29.252C8.528 29.252 6.872 28.952 5.408 28.352C3.944 27.752 2.768 26.864 1.88 25.688C1.016 24.512 0.56 23.096 0.512 21.44H7.064C7.16 22.376 7.484 23.096 8.036 23.6C8.588 24.08 9.308 24.32 10.196 24.32C11.108 24.32 11.828 24.116 12.356 23.708C12.884 23.276 13.148 22.688 13.148 21.944C13.148 21.32 12.932 20.804 12.5 20.396C12.092 19.988 11.576 19.652 10.952 19.388C10.352 19.124 9.488 18.824 8.36 18.488C6.728 17.984 5.396 17.48 4.364 16.976C3.332 16.472 2.444 15.728 1.7 14.744C0.956 13.76 0.584 12.476 0.584 10.892C0.584 8.54 1.436 6.704 3.14 5.384C4.844 4.04 7.064 3.368 9.8 3.368C12.584 3.368 14.828 4.04 16.532 5.384C18.236 6.704 19.148 8.552 19.268 10.928H12.608C12.56 10.112 12.26 9.476 11.708 9.02C11.156 8.54 10.448 8.3 9.584 8.3C8.84 8.3 8.24 8.504 7.784 8.912C7.328 9.296 7.1 9.86 7.1 10.604C7.1 11.42 7.484 12.056 8.252 12.512C9.02 12.968 10.22 13.46 11.852 13.988C13.484 14.54 14.804 15.068 15.812 15.572C16.844 16.076 17.732 16.808 18.476 17.768C19.22 18.728 19.592 19.964 19.592 21.476C19.592 22.916 19.22 24.224 18.476 25.4C17.756 26.576 16.7 27.512 15.308 28.208C13.916 28.904 12.272 29.252 10.376 29.252ZM29.5364 24.248H37.6004V29H23.3804V3.728H29.5364V24.248ZM58.7167 3.728V8.66H52.0207V29H45.8647V8.66H39.1687V3.728H58.7167ZM64.9022 6.824C63.8222 6.824 62.9342 6.512 62.2382 5.888C61.5662 5.24 61.2302 4.448 61.2302 3.512C61.2302 2.552 61.5662 1.76 62.2382 1.136C62.9342 0.487998 63.8222 0.163998 64.9022 0.163998C65.9582 0.163998 66.8222 0.487998 67.4942 1.136C68.1902 1.76 68.5382 2.552 68.5382 3.512C68.5382 4.448 68.1902 5.24 67.4942 5.888C66.8222 6.512 65.9582 6.824 64.9022 6.824ZM67.9622 8.912V29H61.8062V8.912H67.9622ZM71.1994 18.956C71.1994 16.868 71.6194 15.044 72.4594 13.484C73.3234 11.924 74.5114 10.724 76.0234 9.884C77.5594 9.044 79.3114 8.624 81.2794 8.624C83.7994 8.624 85.8994 9.284 87.5794 10.604C89.2834 11.924 90.3994 13.784 90.9274 16.184H84.3754C83.8234 14.648 82.7554 13.88 81.1714 13.88C80.0434 13.88 79.1434 14.324 78.4714 15.212C77.7994 16.076 77.4634 17.324 77.4634 18.956C77.4634 20.588 77.7994 21.848 78.4714 22.736C79.1434 23.6 80.0434 24.032 81.1714 24.032C82.7554 24.032 83.8234 23.264 84.3754 21.728H90.9274C90.3994 24.08 89.2834 25.928 87.5794 27.272C85.8754 28.616 83.7754 29.288 81.2794 29.288C79.3114 29.288 77.5594 28.868 76.0234 28.028C74.5114 27.188 73.3234 25.988 72.4594 24.428C71.6194 22.868 71.1994 21.044 71.1994 18.956ZM106.496 29L100.376 20.576V29H94.2203V2.36H100.376V17.084L106.46 8.912H114.056L105.704 18.992L114.128 29H106.496ZM135.41 18.632C135.41 19.208 135.374 19.808 135.302 20.432H121.37C121.466 21.68 121.862 22.64 122.558 23.312C123.278 23.96 124.154 24.284 125.186 24.284C126.722 24.284 127.79 23.636 128.39 22.34H134.942C134.606 23.66 133.994 24.848 133.106 25.904C132.242 26.96 131.15 27.788 129.83 28.388C128.51 28.988 127.034 29.288 125.402 29.288C123.434 29.288 121.682 28.868 120.146 28.028C118.61 27.188 117.41 25.988 116.546 24.428C115.682 22.868 115.25 21.044 115.25 18.956C115.25 16.868 115.67 15.044 116.51 13.484C117.374 11.924 118.574 10.724 120.11 9.884C121.646 9.044 123.41 8.624 125.402 8.624C127.346 8.624 129.074 9.032 130.586 9.848C132.098 10.664 133.274 11.828 134.114 13.34C134.978 14.852 135.41 16.616 135.41 18.632ZM129.11 17.012C129.11 15.956 128.75 15.116 128.03 14.492C127.31 13.868 126.41 13.556 125.33 13.556C124.298 13.556 123.422 13.856 122.702 14.456C122.006 15.056 121.574 15.908 121.406 17.012H129.11ZM149.854 23.78V29H146.722C144.49 29 142.75 28.46 141.502 27.38C140.254 26.276 139.63 24.488 139.63 22.016V14.024H137.182V8.912H139.63V4.016H145.786V8.912H149.818V14.024H145.786V22.088C145.786 22.688 145.93 23.12 146.218 23.384C146.506 23.648 146.986 23.78 147.658 23.78H149.854ZM161.455 29.288C159.703 29.288 158.143 28.988 156.775 28.388C155.407 27.788 154.327 26.972 153.535 25.94C152.743 24.884 152.299 23.708 152.203 22.412H158.287C158.359 23.108 158.683 23.672 159.259 24.104C159.835 24.536 160.543 24.752 161.383 24.752C162.151 24.752 162.739 24.608 163.147 24.32C163.579 24.008 163.795 23.612 163.795 23.132C163.795 22.556 163.495 22.136 162.895 21.872C162.295 21.584 161.323 21.272 159.979 20.936C158.539 20.6 157.339 20.252 156.379 19.892C155.419 19.508 154.591 18.92 153.895 18.128C153.199 17.312 152.851 16.22 152.851 14.852C152.851 13.7 153.163 12.656 153.787 11.72C154.435 10.76 155.371 10.004 156.595 9.452C157.843 8.9 159.319 8.624 161.023 8.624C163.543 8.624 165.523 9.248 166.963 10.496C168.427 11.744 169.267 13.4 169.483 15.464H163.795C163.699 14.768 163.387 14.216 162.859 13.808C162.355 13.4 161.683 13.196 160.843 13.196C160.123 13.196 159.571 13.34 159.187 13.628C158.803 13.892 158.611 14.264 158.611 14.744C158.611 15.32 158.911 15.752 159.511 16.04C160.135 16.328 161.095 16.616 162.391 16.904C163.879 17.288 165.091 17.672 166.027 18.056C166.963 18.416 167.779 19.016 168.475 19.856C169.195 20.672 169.567 21.776 169.591 23.168C169.591 24.344 169.255 25.4 168.583 26.336C167.935 27.248 166.987 27.968 165.739 28.496C164.515 29.024 163.087 29.288 161.455 29.288Z" fill="url(#paint0_linear_116_652)"/>
<defs>
<linearGradient id="paint0_linear_116_652" x1="-25.377" y1="-11.1379" x2="118.535" y2="118.499" gradientUnits="userSpaceOnUse">
<stop stop-color="#0A59A2"/>
<stop offset="1" stop-color="#14D3DF"/>
</linearGradient>
</defs>
</svg>
